<svg width="18" height="18" viewBox="0 0 18 18" fill="none" xmlns="http://www.w3.org/2000/svg">
<path d="M18.2969 16.8175L13.964 12.4846C15.0662 11.1637 15.7308 9.46615 15.7308 7.61538C15.7308 3.41631 12.3145 0 8.11538 0C3.91631 0 0.5 3.41631 0.5 7.61538C0.5 11.8145 3.91631 15.2308 8.11538 15.2308C9.96615 15.2308 11.6637 14.5662 12.9846 13.4641L17.3175 17.7969C17.4523 17.9317 17.6295 18 17.8068 18C17.984 18 18.1612 17.9326 18.296 17.7969C18.5674 17.5265 18.5674 17.088 18.2969 16.8175ZM1.88462 7.61538C1.88462 4.17969 4.67969 1.38462 8.11538 1.38462C11.5511 1.38462 14.3462 4.17969 14.3462 7.61538C14.3462 11.0511 11.5511 13.8462 8.11538 13.8462C4.67969 13.8462 1.88462 11.0511 1.88462 7.61538Z" fill="#0057E7"/>
</svg>
