<svg xmlns="http://www.w3.org/2000/svg" width="19" height="19" viewBox="0 0 19 19" fill="none"><path d="M13.7475 7.55693C14.0151 7.82711 14.0151 8.26513 13.7475 8.5353L9.18154 13.1457C9.04821 13.2804 8.87288 13.3486 8.69754 13.3486C8.52221 13.3486 8.34687 13.2813 8.21354 13.1457L5.47394 10.3795C5.20637 10.1093 5.20637 9.67128 5.47394 9.40111C5.74151 9.13094 6.17528 9.13094 6.44285 9.40111L8.69846 11.6786L12.7805 7.55693C13.0471 7.28768 13.48 7.28768 13.7475 7.55693ZM18.5145 9.89074C18.5145 14.8479 14.5201 18.8811 9.61074 18.8811C4.70137 18.8811 0.707031 14.8479 0.707031 9.89074C0.707031 4.9336 4.70137 0.900391 9.61074 0.900391C14.5201 0.900391 18.5145 4.9336 18.5145 9.89074ZM17.1446 9.89074C17.1446 5.69617 13.7649 2.28352 9.61074 2.28352C5.45659 2.28352 2.07683 5.69617 2.07683 9.89074C2.07683 14.0853 5.45659 17.498 9.61074 17.498C13.7649 17.498 17.1446 14.0853 17.1446 9.89074Z" fill="#06BF66"></path></svg>