<svg xmlns="http://www.w3.org/2000/svg" width="65" height="65" viewBox="0 0 65 65" fill="none"><rect x="0.0952148" y="0.0947266" width="64" height="64" rx="10" fill="#0057E7"></rect><path d="M24.2051 29.1716C24.2051 28.4923 24.7565 27.9409 25.4359 27.9409H38.5641C39.2435 27.9409 39.7949 28.4923 39.7949 29.1716C39.7949 29.851 39.2435 30.4024 38.5641 30.4024H25.4359C24.7565 30.4024 24.2051 29.851 24.2051 29.1716ZM27.0769 25.4793H36.9231C37.6025 25.4793 38.1538 24.928 38.1538 24.2486C38.1538 23.5692 37.6025 23.0178 36.9231 23.0178H27.0769C26.3975 23.0178 25.8462 23.5692 25.8462 24.2486C25.8462 24.928 26.3975 25.4793 27.0769 25.4793ZM48 34.894V39.0178C48 43.3156 44.503 46.8127 40.2051 46.8127H23.7949C19.497 46.8127 16 43.3156 16 39.0178V34.894C16 34.231 16.1067 33.5762 16.3151 32.9477L19.4905 23.4249C20.5522 20.238 23.5241 18.0947 26.8849 18.0947H37.1151C40.4759 18.0947 43.4461 20.2363 44.5095 23.4249L47.6849 32.9477C47.8933 33.5746 48 34.2294 48 34.894ZM18.9374 32.864H27.0769C27.7563 32.864 28.3077 33.4153 28.3077 34.0947C28.3077 36.1312 29.9635 37.787 32 37.787C34.0365 37.787 35.6923 36.1312 35.6923 34.0947C35.6923 33.4153 36.2437 32.864 36.9231 32.864H45.0626L42.176 24.2027C41.449 22.0218 39.4158 20.5563 37.1167 20.5563H26.8865C24.5874 20.5563 22.5543 22.0218 21.8273 24.2027L18.9374 32.864ZM45.5385 39.0178V35.3255H38.0308C37.458 38.13 34.9719 40.2486 32 40.2486C29.0281 40.2486 26.542 38.13 25.9693 35.3255H18.4615V39.0178C18.4615 41.9585 20.8542 44.3511 23.7949 44.3511H40.2051C43.1458 44.3511 45.5385 41.9585 45.5385 39.0178Z" fill="white"></path></svg>