<svg xmlns="http://www.w3.org/2000/svg" width="104" height="104" viewBox="0 0 104 104" fill="none"><path d="M41.7833 102.255H41.9484C45.7119 102.974 49.5438 103.272 53.3732 103.143C54.1369 103.143 54.9109 103.081 55.6746 103.019L55.1586 102.121L53.2906 98.8804L37.2113 71.0152C36.6271 70.0046 35.7259 69.2149 34.6473 68.7685C33.5688 68.3221 32.3731 68.2439 31.2455 68.546C30.118 68.8482 29.1217 69.5138 28.4109 70.4398C27.7001 71.3657 27.3145 72.5002 27.314 73.6675V81.9239C27.4275 91.7387 32.1955 100.274 41.7626 102.183L41.7833 102.255Z" fill="url(#paint0_linear_165_6205)"></path><path d="M27.3124 81.9961V45.0694C27.4184 42.6808 26.8801 40.3076 25.7539 38.1984C24.6278 36.0892 22.9552 34.3216 20.9114 33.0807C18.8675 31.8399 16.5277 31.1714 14.1368 31.1453C11.7459 31.1193 9.39203 31.7366 7.32164 32.9326C5.70578 33.8631 4.30378 35.1232 3.20672 36.631C2.10967 38.1388 1.34211 39.8605 0.953909 41.6843C0.953909 41.8907 0.871345 42.0971 0.840383 42.3036C-1.13073 53.0973 0.386447 64.2383 5.17204 74.112C9.95763 83.9856 17.763 92.0789 27.4569 97.2188C31.9984 99.6077 36.8668 101.315 41.9056 102.286C32.2353 100.418 27.4259 91.8522 27.3124 81.9961Z" fill="url(#paint1_linear_165_6205)"></path><path d="M12.6302 17.7809L12.5167 17.8945C10.0167 20.7988 7.84326 23.969 6.03547 27.348C5.67425 28.0292 5.33367 28.7103 5.00342 29.4121H41.9301C43.0974 29.4116 44.2319 29.026 45.1578 28.3152C46.0838 27.6044 46.7494 26.608 47.0515 25.4805C47.3537 24.353 47.2755 23.1573 46.8291 22.0787C46.3827 21.0002 45.593 20.099 44.5824 19.5148L37.3581 15.3866C28.8024 10.5772 19.0289 10.4328 12.589 17.7913L12.6302 17.7809Z" fill="url(#paint2_linear_165_6205)"></path><path d="M37.4051 15.3775L69.3985 33.8408C72.2181 35.6166 75.6004 36.2724 78.8793 35.6789C82.1582 35.0855 85.0961 33.2859 87.1144 30.6345C89.1327 27.9831 90.0851 24.6721 89.7841 21.3536C89.4832 18.035 87.9505 14.9494 85.4881 12.7045L85.0134 12.2916C76.6544 5.1834 66.2471 0.924771 55.3029 0.134161C44.3588 -0.656448 33.4475 2.06213 24.1536 7.89511C19.8082 10.6294 15.8921 13.9926 12.5327 17.875C18.983 10.4236 28.8081 10.5475 37.4051 15.3775Z" fill="url(#paint3_linear_165_6205)"></path><path d="M37.4051 15.3775L69.3985 33.8408C72.2181 35.6166 75.6004 36.2724 78.8793 35.6789C82.1582 35.0855 85.0961 33.2859 87.1144 30.6345C89.1327 27.9831 90.0851 24.6721 89.7841 21.3536C89.4832 18.035 87.9505 14.9494 85.4881 12.7045L85.0134 12.2916C76.6544 5.1834 66.2471 0.924771 55.3029 0.134161C44.3588 -0.656448 33.4475 2.06213 24.1536 7.89511C19.8082 10.6294 15.8921 13.9926 12.5327 17.875C18.983 10.4236 28.8081 10.5475 37.4051 15.3775Z" fill="url(#paint4_linear_165_6205)"></path><path d="M100.361 34.7597L100.31 34.6049C99.0491 30.9923 97.3911 27.531 95.3663 24.2844C94.9638 23.6342 94.5407 22.9944 94.1072 22.3545L93.5912 23.2627L91.7232 26.493L75.6439 54.3583C75.0671 55.3668 74.838 56.537 74.992 57.6885C75.146 58.8401 75.6745 59.909 76.496 60.7305C77.3175 61.552 78.3864 62.0805 79.538 62.2345C80.6895 62.3885 81.8597 62.1594 82.8682 61.5826L90.0925 57.4544C98.5347 52.449 103.509 44.0378 100.413 34.7494L100.361 34.7597Z" fill="url(#paint5_linear_165_6205)"></path><path d="M90.052 57.4253L58.0585 75.8886C55.7967 77.0522 53.9188 78.844 52.6506 81.0489C51.2965 83.3852 50.6837 86.0776 50.8932 88.7699C51.1028 91.4621 52.1249 94.0273 53.8242 96.126C55.5235 98.2247 57.8199 99.7579 60.4097 100.523C62.9995 101.288 65.7605 101.249 68.3274 100.41L68.926 100.204C79.2682 96.5226 88.1669 89.6393 94.3289 80.554C100.491 71.4688 103.595 60.6552 103.19 49.6849C102.992 44.5574 102.039 39.4871 100.362 34.6377C103.582 43.9261 98.5664 52.3992 90.0417 57.4253H90.052Z" fill="url(#paint6_linear_165_6205)"></path><g clip-path="url(#clip0_165_6205)"><path d="M53.0716 65.1237C56.8077 65.1237 59.8383 62.0944 59.8383 58.3571C59.8383 54.6198 56.8089 51.5904 53.0716 51.5904C49.3343 51.5904 46.305 48.5611 46.305 44.8238C46.305 41.0865 49.3355 38.0596 53.0716 38.0596C45.5983 38.0596 39.5396 44.1183 39.5396 51.5916C39.5396 59.065 45.5983 65.1237 53.0716 65.1237Z" fill="url(#paint7_linear_165_6205)"></path><path d="M53.0718 38.0596C49.3357 38.0596 46.3052 41.0889 46.3052 44.825C46.3052 48.5611 49.3345 51.5916 53.0718 51.5916C56.8091 51.5916 59.8384 54.621 59.8384 58.3583C59.8384 62.0956 56.8091 65.1249 53.0718 65.1249C60.5452 65.1249 66.6039 59.0662 66.6039 51.5928C66.6039 44.1195 60.5452 38.0596 53.0718 38.0596Z" fill="url(#paint8_linear_165_6205)"></path></g><ellipse cx="51.5796" cy="51.2464" rx="38.2686" ry="37.9358" fill="white"></ellipse><rect x="4.6958" y="5.03027" width="93" height="93" rx="46.5" fill="#06BF66"></rect><path d="M37.6034 64.2688C38.0509 64.7163 38.6728 64.9943 39.3566 64.9943C40.042 64.9943 40.6623 64.7163 41.1098 64.2688C42.07 63.3086 42.0732 61.7209 41.1122 60.7599C40.6655 60.3131 40.0452 60.0367 39.3566 60.0367C38.6712 60.0367 38.0509 60.3148 37.6034 60.7623C36.6303 61.7249 36.6408 63.3062 37.6034 64.2688ZM22.361 56.5487C21.6097 56.5487 20.9998 55.9389 20.9998 55.1876C20.9998 54.4363 21.6097 53.8265 22.361 53.8265H35.3262C36.0775 53.8265 36.6874 54.4363 36.6874 55.1876C36.6874 55.9389 36.0775 56.5487 35.3262 56.5487H22.361ZM22.3602 45.5641C21.6089 45.5641 20.999 44.9542 20.999 44.203C20.999 43.4517 21.6089 42.8418 22.3602 42.8418H35.3262C36.0775 42.8418 36.6874 43.4517 36.6874 44.203C36.6874 44.9542 36.0775 45.5641 35.3262 45.5641H22.3602ZM24.3994 51.0568C23.6482 51.0568 23.0383 50.447 23.0383 49.6957C23.0383 48.9444 23.6482 48.3346 24.3994 48.3346H37.3647C38.116 48.3346 38.7259 48.9444 38.7259 49.6957C38.7259 50.447 38.116 51.0568 37.3647 51.0568H24.3994ZM72.3965 57.3145C73.8308 57.3145 75.1325 57.8978 76.0734 58.8387C76.7194 59.4847 77.1967 60.3003 77.4329 61.2131H79.5043V52.1432L71.9177 44.5581H64.6227V61.2131H67.361C67.5972 60.3035 68.0745 59.4896 68.7197 58.8435L68.727 58.8363C69.6687 57.8962 70.9671 57.3145 72.3965 57.3145ZM77.4007 63.9353C77.1557 64.7999 76.6912 65.5745 76.0734 66.1924C75.1325 67.1333 73.8308 67.7166 72.3965 67.7166C70.9615 67.7166 69.6606 67.1333 68.7197 66.1924C68.1018 65.5745 67.6374 64.7999 67.3923 63.9353L44.3777 63.8743C44.1374 64.7637 43.6666 65.5592 43.0334 66.1924C42.0925 67.1333 40.7917 67.7166 39.3566 67.7166C37.9224 67.7166 36.6207 67.1333 35.6798 66.1924C35.0619 65.5745 34.5975 64.7999 34.3524 63.9353H30.8877C30.1364 63.9353 29.5266 63.3255 29.5266 62.5742V58.8194C29.5266 58.0682 30.1364 57.4583 30.8877 57.4583C31.639 57.4583 32.2488 58.0682 32.2488 58.8194V61.2131H34.3211C34.5573 60.3027 35.0354 59.4879 35.6822 58.8411C36.6207 57.8978 37.9215 57.3145 39.3566 57.3145C40.7868 57.3145 42.0861 57.8978 43.0286 58.8387L43.0358 58.846C43.6682 59.4799 44.139 60.2738 44.3785 61.1624L61.9004 61.2147V38.1783H32.2488V40.494C32.2488 41.2453 31.639 41.8551 30.8877 41.8551C30.1364 41.8551 29.5266 41.2453 29.5266 40.494V36.8172C29.5266 36.0659 30.1364 35.4561 30.8877 35.4561H63.2615C64.0128 35.4561 64.6227 36.0659 64.6227 36.8172V41.8358H72.4801C72.8706 41.8358 73.2233 42.0006 73.4716 42.2649L81.8272 50.6189C82.0932 50.8841 82.2258 51.2328 82.2258 51.5807L82.2266 62.5742C82.2266 63.3255 81.6167 63.9353 80.8654 63.9353H77.4007ZM74.1498 60.7623C73.7022 60.3148 73.0803 60.0367 72.3965 60.0367C71.7079 60.0367 71.0876 60.3131 70.6433 60.7575C69.6751 61.7257 69.6767 63.3022 70.6433 64.2688C71.0909 64.7163 71.7112 64.9943 72.3965 64.9943C73.0803 64.9943 73.7022 64.7163 74.1498 64.2688C75.1164 63.3022 75.118 61.7305 74.1498 60.7623Z" fill="white"></path><defs><linearGradient id="paint0_linear_165_6205" x1="-7.4391" y1="46.0801" x2="46.0942" y2="93.7728" gradientUnits="userSpaceOnUse"><stop stop-color="#020C6A"></stop><stop offset="0.0001" stop-color="#0463EF"></stop><stop offset="0.81096" stop-color="#06BF66"></stop><stop offset="1" stop-color="#68EDA4"></stop></linearGradient><linearGradient id="paint1_linear_165_6205" x1="-30.3158" y1="124.145" x2="2.38226" y2="-25.3477" gradientUnits="userSpaceOnUse"><stop stop-color="#020C6A"></stop><stop offset="0.49" stop-color="#0463EF"></stop><stop offset="1" stop-color="#5EFCA1"></stop></linearGradient><linearGradient id="paint2_linear_165_6205" x1="3.55071" y1="-26.4115" x2="-16.767" y2="7.92209" gradientUnits="userSpaceOnUse"><stop offset="0.0104167" stop-color="#020C6A"></stop><stop offset="0.572917" stop-color="#06BF66"></stop><stop offset="1" stop-color="#62EAA0"></stop></linearGradient><linearGradient id="paint3_linear_165_6205" x1="-52.6231" y1="-85.2533" x2="60.4926" y2="17.8098" gradientUnits="userSpaceOnUse"><stop offset="0.177083" stop-color="#020C6A"></stop><stop offset="0.822917" stop-color="#0463EF"></stop><stop offset="1" stop-color="#2C7BF6"></stop></linearGradient><linearGradient id="paint4_linear_165_6205" x1="-52.6231" y1="-85.2533" x2="60.4926" y2="17.8098" gradientUnits="userSpaceOnUse"><stop offset="0.177083" stop-color="#020C6A"></stop><stop offset="0.822917" stop-color="#0463EF"></stop><stop offset="1" stop-color="#2C7BF6"></stop></linearGradient><linearGradient id="paint5_linear_165_6205" x1="88.1423" y1="22.3545" x2="88.1423" y2="62.2812" gradientUnits="userSpaceOnUse"><stop offset="0.604725" stop-color="#06BF66"></stop><stop offset="1" stop-color="#7BF5AF"></stop></linearGradient><linearGradient id="paint6_linear_165_6205" x1="139.876" y1="0.130465" x2="-5.9366" y2="46.5591" gradientUnits="userSpaceOnUse"><stop offset="0.215949" stop-color="#0347C4"></stop><stop offset="0.49" stop-color="#0057E7"></stop><stop offset="0.762166" stop-color="#3784F9"></stop></linearGradient><linearGradient id="paint7_linear_165_6205" x1="49.6889" y1="38.0596" x2="49.6889" y2="65.1237" gradientUnits="userSpaceOnUse"><stop stop-color="#06BF66"></stop><stop offset="1" stop-color="#7BF5AF"></stop></linearGradient><linearGradient id="paint8_linear_165_6205" x1="46.3052" y1="38.0596" x2="72.7357" y2="47.0024" gradientUnits="userSpaceOnUse"><stop stop-color="#0057E7"></stop><stop offset="1" stop-color="#0057E7" stop-opacity="0.85"></stop></linearGradient><clipPath id="clip0_165_6205"><rect width="27.0641" height="27.0641" fill="white" transform="translate(39.5396 38.0596)"></rect></clipPath></defs></svg>