<svg xmlns="http://www.w3.org/2000/svg" width="65" height="65" viewBox="0 0 65 65" fill="none"><rect x="0.0361328" y="0.0947266" width="64" height="64" rx="10" fill="#0057E7"></rect><path d="M31.9482 33.6845C36.2461 33.6845 39.7431 30.1874 39.7431 25.8896C39.7431 21.5918 36.2461 18.0947 31.9482 18.0947C27.6504 18.0947 24.1534 21.5918 24.1534 25.8896C24.1534 30.1874 27.6504 33.6845 31.9482 33.6845ZM31.9482 20.5563C34.889 20.5563 37.2816 22.9489 37.2816 25.8896C37.2816 28.8303 34.889 31.2229 31.9482 31.2229C29.0075 31.2229 26.6149 28.8303 26.6149 25.8896C26.6149 22.9489 29.0075 20.5563 31.9482 20.5563ZM43.0252 41.3153V42.7364C43.0252 44.0935 42.528 45.3949 41.627 46.4008C41.3858 46.6732 41.0477 46.8111 40.7097 46.8111C40.4159 46.8111 40.1238 46.7076 39.8891 46.4976C39.3821 46.0446 39.3395 45.2669 39.7924 44.7598C40.288 44.2051 40.562 43.4863 40.562 42.7364V41.3153C40.562 39.2656 39.2033 37.4934 37.2586 37.006C36.9403 36.9256 36.6087 36.9698 36.338 37.1224C33.6106 38.642 30.2695 38.6354 27.5634 37.129C27.2795 36.9682 26.9481 36.9271 26.6346 37.0042C24.6884 37.4932 23.3296 39.2656 23.3296 41.3153V42.7364C23.3296 43.4863 23.6036 44.2051 24.0992 44.7598C24.5521 45.2669 24.5095 46.0446 24.0024 46.4976C23.497 46.9489 22.7175 46.9079 22.2645 46.4008C21.3636 45.3949 20.8664 44.0918 20.8664 42.7364V41.3153C20.8664 38.1366 22.9899 35.3829 26.0307 34.6166C26.9496 34.3835 27.9524 34.5165 28.768 34.9841C30.7224 36.0705 33.1511 36.077 35.1285 34.9775C35.9326 34.5164 36.932 34.3819 37.8559 34.6182C40.9016 35.3829 43.0252 38.1366 43.0252 41.3153ZM40.6342 19.1959C40.8607 18.5559 41.563 18.2194 42.2047 18.4459C44.658 19.3123 46.3072 21.6443 46.3072 24.2486C46.3072 25.9979 45.5589 27.6685 44.2559 28.8353C44.0196 29.0454 43.7275 29.1486 43.4354 29.1486C43.0974 29.1486 42.7609 29.0108 42.5181 28.7384C42.0651 28.2313 42.1078 27.4535 42.6149 27.0006C43.3977 26.3015 43.8457 25.2988 43.8457 24.2486C43.8457 22.6863 42.8561 21.2866 41.3841 20.7664C40.7425 20.5399 40.4078 19.8359 40.6342 19.1959ZM47.9482 37.1027V38.2876C47.9482 38.967 47.3969 39.5184 46.7175 39.5184C46.0381 39.5184 45.4867 38.967 45.4867 38.2876V37.1027C45.4867 35.4896 44.4184 34.0947 42.8889 33.7107C42.2309 33.545 41.8289 32.877 41.9946 32.2173C42.162 31.5576 42.8331 31.159 43.4879 31.3231C46.1152 31.9828 47.9482 34.3589 47.9482 37.1027ZM19.6405 29.5639C18.3376 28.3971 17.5893 26.7265 17.5893 24.9771C17.5893 22.3728 19.2385 20.0409 21.6918 19.1745C22.3384 18.948 23.0358 19.2845 23.2622 19.9245C23.4887 20.5661 23.154 21.2685 22.5123 21.495C21.0403 22.0152 20.0508 23.4149 20.0508 24.9771C20.0508 26.0258 20.4988 27.0284 21.2816 27.7291C21.7887 28.1821 21.8314 28.96 21.3784 29.4671C21.1372 29.7395 20.7991 29.8774 20.4611 29.8774C20.169 29.8774 19.8752 29.7739 19.6405 29.5639ZM21.0075 34.4393C19.4781 34.8233 18.4098 36.2182 18.4098 37.8313V39.0178C18.4098 39.6972 17.8584 40.2486 17.179 40.2486C16.4996 40.2486 15.9482 39.6972 15.9482 39.0178V37.8329C15.9482 35.0891 17.7829 32.713 20.4086 32.0533C21.0666 31.8924 21.7361 32.288 21.9019 32.9477C22.0676 33.6041 21.6672 34.2735 21.0075 34.4393Z" fill="white"></path></svg>