<svg xmlns="http://www.w3.org/2000/svg" width="60" height="60" viewBox="0 0 60 60" fill="none"><path d="M23.9952 58.745H24.09C26.2513 59.1579 28.4519 59.3289 30.6511 59.2547C31.0897 59.2547 31.5343 59.2191 31.9728 59.1836L31.6765 58.6679L30.6037 56.8069L21.3695 40.8041C21.034 40.2237 20.5165 39.7702 19.897 39.5138C19.2776 39.2574 18.5909 39.2125 17.9434 39.3861C17.2959 39.5596 16.7237 39.9419 16.3155 40.4736C15.9073 41.0054 15.6859 41.6569 15.6855 42.3273V47.0689C15.7507 52.7054 18.489 57.607 23.9833 58.7035L23.9952 58.745Z" fill="url(#paint0_linear_521_14245)"></path><path d="M15.6853 47.1109V25.9042C15.7461 24.5324 15.437 23.1695 14.7903 21.9582C14.1435 20.7469 13.183 19.7318 12.0092 19.0192C10.8355 18.3065 9.49171 17.9227 8.11865 17.9077C6.74559 17.8927 5.39377 18.2472 4.20476 18.9341C3.27678 19.4685 2.47163 20.1922 1.8416 21.0581C1.21157 21.924 0.770761 22.9127 0.547822 23.9601C0.547822 24.0787 0.500406 24.1972 0.482625 24.3158C-0.64937 30.5145 0.221934 36.9127 2.97026 42.5831C5.71858 48.2534 10.2011 52.9013 15.7683 55.8531C18.3764 57.2251 21.1723 58.2056 24.066 58.7633C18.5125 57.6905 15.7505 52.7711 15.6853 47.1109Z" fill="url(#paint1_linear_521_14245)"></path><path d="M7.25503 10.2321L7.18983 10.2973C5.75409 11.9653 4.5059 13.7859 3.4677 15.7264C3.26025 16.1176 3.06466 16.5087 2.875 16.9118H24.0817C24.752 16.9115 25.4036 16.6901 25.9354 16.2818C26.4671 15.8736 26.8494 15.3014 27.0229 14.6539C27.1964 14.0064 27.1515 13.3197 26.8952 12.7003C26.6388 12.0809 26.1853 11.5633 25.6049 11.2278L21.456 8.85703C16.5426 6.09507 10.9297 6.01209 7.23132 10.238L7.25503 10.2321Z" fill="url(#paint2_linear_521_14245)"></path><path d="M21.4812 8.85263L39.8548 19.456C41.4741 20.4758 43.4165 20.8524 45.2996 20.5116C47.1826 20.1708 48.8698 19.1373 50.0289 17.6146C51.188 16.092 51.735 14.1905 51.5621 12.2847C51.3893 10.3789 50.5091 8.60682 49.095 7.31755L48.8223 7.08047C44.0218 2.99827 38.045 0.552573 31.7599 0.0985321C25.4747 -0.355508 19.2084 1.20575 13.871 4.55558C11.3755 6.12586 9.12651 8.0573 7.19727 10.287C10.9016 6.00769 16.5441 6.07881 21.4812 8.85263Z" fill="url(#paint3_linear_521_14245)"></path><path d="M21.4812 8.85263L39.8548 19.456C41.4741 20.4758 43.4165 20.8524 45.2996 20.5116C47.1826 20.1708 48.8698 19.1373 50.0289 17.6146C51.188 16.092 51.735 14.1905 51.5621 12.2847C51.3893 10.3789 50.5091 8.60682 49.095 7.31755L48.8223 7.08047C44.0218 2.99827 38.045 0.552573 31.7599 0.0985321C25.4747 -0.355508 19.2084 1.20575 13.871 4.55558C11.3755 6.12586 9.12651 8.0573 7.19727 10.287C10.9016 6.00769 16.5441 6.07881 21.4812 8.85263Z" fill="url(#paint4_linear_521_14245)"></path><path d="M57.6373 19.9836L57.6076 19.8947C56.8837 17.82 55.9315 15.8322 54.7686 13.9677C54.5375 13.5943 54.2945 13.2268 54.0455 12.8594L53.7492 13.3809L52.6764 15.2361L43.4422 31.2389C43.111 31.8181 42.9794 32.4901 43.0678 33.1514C43.1563 33.8127 43.4598 34.4266 43.9316 34.8984C44.4034 35.3702 45.0172 35.6737 45.6785 35.7621C46.3399 35.8506 47.0119 35.719 47.5911 35.3878L51.7399 33.017C56.5882 30.1424 59.445 25.3119 57.6669 19.9777L57.6373 19.9836Z" fill="url(#paint5_linear_521_14245)"></path><path d="M51.7167 32.9998L33.3431 43.6032C32.0442 44.2714 30.9657 45.3004 30.2374 46.5666C29.4598 47.9084 29.1078 49.4546 29.2282 51.0008C29.3485 52.5469 29.9355 54.0201 30.9114 55.2253C31.8873 56.4306 33.2061 57.3111 34.6934 57.7504C36.1807 58.1898 37.7663 58.1672 39.2405 57.6856L39.5842 57.5671C45.5237 55.4531 50.6342 51.5 54.1729 46.2825C57.7117 41.0649 59.4943 34.8547 59.2617 28.5546C59.1483 25.6099 58.601 22.6981 57.6378 19.9131C59.487 25.2474 56.6065 30.1134 51.7108 32.9998H51.7167Z" fill="url(#paint6_linear_521_14245)"></path><g clip-path="url(#clip0_521_14245)"><path d="M30.4784 37.4206C32.624 37.4206 34.3644 35.6809 34.3644 33.5346C34.3644 31.3883 32.6247 29.6486 30.4784 29.6486C28.3321 29.6486 26.5924 27.9089 26.5924 25.7626C26.5924 23.6163 28.3328 21.8779 30.4784 21.8779C26.1865 21.8779 22.707 25.3574 22.707 29.6493C22.707 33.9412 26.1865 37.4206 30.4784 37.4206Z" fill="url(#paint7_linear_521_14245)"></path><path d="M30.4778 21.8779C28.3322 21.8779 26.5918 23.6177 26.5918 25.7633C26.5918 27.9089 28.3315 29.6493 30.4778 29.6493C32.6241 29.6493 34.3638 31.389 34.3638 33.5353C34.3638 35.6816 32.6241 37.4213 30.4778 37.4213C34.7697 37.4213 38.2492 33.9419 38.2492 29.65C38.2492 25.3581 34.7697 21.8779 30.4778 21.8779Z" fill="url(#paint8_linear_521_14245)"></path></g><ellipse cx="29.6219" cy="29.4513" rx="21.9773" ry="21.7862" fill="white"></ellipse><rect x="2.69727" y="2.90918" width="53.4091" height="53.4091" rx="26.7046" fill="#06BF66"></rect><path d="M29.6417 30.6758C33.2337 30.6758 36.1564 27.7531 36.1564 24.1611C36.1564 20.5692 33.2337 17.6465 29.6417 17.6465C26.0497 17.6465 23.1271 20.5692 23.1271 24.1611C23.1271 27.7531 26.0497 30.6758 29.6417 30.6758ZM29.6417 19.7037C32.0994 19.7037 34.0991 21.7034 34.0991 24.1611C34.0991 26.6189 32.0994 28.6185 29.6417 28.6185C27.184 28.6185 25.1843 26.6189 25.1843 24.1611C25.1843 21.7034 27.184 19.7037 29.6417 19.7037ZM38.8994 37.0533V38.241C38.8994 39.3752 38.4838 40.4629 37.7309 41.3036C37.5292 41.5313 37.2467 41.6465 36.9642 41.6465C36.7187 41.6465 36.4745 41.56 36.2784 41.3845C35.8546 41.0059 35.819 40.3559 36.1975 39.9321C36.6117 39.4685 36.8408 38.8678 36.8408 38.241V37.0533C36.8408 35.3403 35.7052 33.8591 34.0799 33.4518C33.8139 33.3846 33.5368 33.4215 33.3105 33.549C31.031 34.8191 28.2387 34.8136 25.977 33.5546C25.7398 33.4202 25.4628 33.3858 25.2008 33.4503C23.5742 33.859 22.4385 35.3403 22.4385 37.0533V38.241C22.4385 38.8678 22.6676 39.4685 23.0818 39.9321C23.4603 40.3559 23.4247 41.0059 23.0009 41.3845C22.5785 41.7616 21.927 41.7274 21.5485 41.3036C20.7955 40.4629 20.3799 39.3739 20.3799 38.241V37.0533C20.3799 34.3967 22.1546 32.0953 24.696 31.4548C25.4641 31.26 26.3021 31.3711 26.9837 31.762C28.6172 32.6699 30.647 32.6754 32.2997 31.7565C32.9717 31.3711 33.8069 31.2586 34.5791 31.4561C37.1246 32.0952 38.8994 34.3967 38.8994 37.0533ZM36.9011 18.5668C37.0904 18.0319 37.6774 17.7507 38.2136 17.94C40.264 18.6641 41.6424 20.613 41.6424 22.7896C41.6424 24.2517 41.017 25.6479 39.928 26.623C39.7305 26.7986 39.4864 26.8849 39.2422 26.8849C38.9597 26.8849 38.6785 26.7697 38.4755 26.542C38.097 26.1182 38.1327 25.4682 38.5565 25.0896C39.2107 24.5054 39.5851 23.6674 39.5851 22.7896C39.5851 21.484 38.7581 20.3141 37.5279 19.8794C36.9916 19.6901 36.7119 19.1017 36.9011 18.5668ZM43.0139 33.5326V34.5229C43.0139 35.0907 42.5531 35.5516 41.9853 35.5516C41.4174 35.5516 40.9566 35.0907 40.9566 34.5229V33.5326C40.9566 32.1844 40.0638 31.0186 38.7855 30.6977C38.2355 30.5592 37.8996 30.0009 38.0381 29.4496C38.178 28.8983 38.7389 28.5651 39.2861 28.7022C41.4819 29.2536 43.0139 31.2395 43.0139 33.5326ZM19.3554 27.232C18.2664 26.2568 17.641 24.8606 17.641 23.3985C17.641 21.222 19.0194 19.273 21.0698 18.5489C21.6102 18.3596 22.193 18.6408 22.3823 19.1757C22.5716 19.712 22.2918 20.299 21.7556 20.4883C20.5253 20.923 19.6983 22.0929 19.6983 23.3985C19.6983 24.2749 20.0727 25.1129 20.7269 25.6986C21.1507 26.0771 21.1864 26.7273 20.8079 27.1511C20.6063 27.3788 20.3237 27.494 20.0412 27.494C19.797 27.494 19.5515 27.4075 19.3554 27.232ZM20.4979 31.3066C19.2196 31.6276 18.3268 32.7934 18.3268 34.1415V35.1332C18.3268 35.701 17.866 36.1618 17.2982 36.1618C16.7304 36.1618 16.2695 35.701 16.2695 35.1332V34.1429C16.2695 31.8497 17.8029 29.8638 19.9973 29.3125C20.5473 29.1781 21.1068 29.5087 21.2453 30.06C21.3839 30.6086 21.0492 31.1681 20.4979 31.3066Z" fill="white"></path><defs><linearGradient id="paint0_linear_521_14245" x1="-4.27286" y1="26.484" x2="26.4709" y2="53.8736" gradientUnits="userSpaceOnUse"><stop stop-color="#020C6A"></stop><stop offset="0.0001" stop-color="#0463EF"></stop><stop offset="0.81096" stop-color="#06BF66"></stop><stop offset="1" stop-color="#68EDA4"></stop></linearGradient><linearGradient id="paint1_linear_521_14245" x1="-17.4101" y1="71.3165" x2="1.36811" y2="-14.5358" gradientUnits="userSpaceOnUse"><stop stop-color="#020C6A"></stop><stop offset="0.49" stop-color="#0463EF"></stop><stop offset="1" stop-color="#5EFCA1"></stop></linearGradient><linearGradient id="paint2_linear_521_14245" x1="2.04072" y1="-15.1473" x2="-9.62758" y2="4.57024" gradientUnits="userSpaceOnUse"><stop offset="0.0104167" stop-color="#020C6A"></stop><stop offset="0.572917" stop-color="#06BF66"></stop><stop offset="1" stop-color="#62EAA0"></stop></linearGradient><linearGradient id="paint3_linear_521_14245" x1="-30.2212" y1="-48.9388" x2="34.7402" y2="10.2495" gradientUnits="userSpaceOnUse"><stop offset="0.177083" stop-color="#020C6A"></stop><stop offset="0.822917" stop-color="#0463EF"></stop><stop offset="1" stop-color="#2C7BF6"></stop></linearGradient><linearGradient id="paint4_linear_521_14245" x1="-30.2212" y1="-48.9388" x2="34.7402" y2="10.2495" gradientUnits="userSpaceOnUse"><stop offset="0.177083" stop-color="#020C6A"></stop><stop offset="0.822917" stop-color="#0463EF"></stop><stop offset="1" stop-color="#2C7BF6"></stop></linearGradient><linearGradient id="paint5_linear_521_14245" x1="50.62" y1="12.8594" x2="50.62" y2="35.789" gradientUnits="userSpaceOnUse"><stop offset="0.604725" stop-color="#06BF66"></stop><stop offset="1" stop-color="#7BF5AF"></stop></linearGradient><linearGradient id="paint6_linear_521_14245" x1="80.3305" y1="0.0958639" x2="-3.40874" y2="26.7595" gradientUnits="userSpaceOnUse"><stop offset="0.215949" stop-color="#0347C4"></stop><stop offset="0.49" stop-color="#0057E7"></stop><stop offset="0.762166" stop-color="#3784F9"></stop></linearGradient><linearGradient id="paint7_linear_521_14245" x1="28.5357" y1="21.8779" x2="28.5357" y2="37.4206" gradientUnits="userSpaceOnUse"><stop stop-color="#06BF66"></stop><stop offset="1" stop-color="#7BF5AF"></stop></linearGradient><linearGradient id="paint8_linear_521_14245" x1="26.5918" y1="21.8779" x2="41.7706" y2="27.0137" gradientUnits="userSpaceOnUse"><stop stop-color="#0057E7"></stop><stop offset="1" stop-color="#0057E7" stop-opacity="0.85"></stop></linearGradient><clipPath id="clip0_521_14245"><rect width="15.5427" height="15.5427" fill="white" transform="translate(22.707 21.8779)"></rect></clipPath></defs></svg>