<svg xmlns="http://www.w3.org/2000/svg" width="60" height="60" viewBox="0 0 60 60" fill="none"><path d="M23.9952 58.745H24.09C26.2513 59.1579 28.4519 59.3289 30.6511 59.2547C31.0897 59.2547 31.5343 59.2191 31.9728 59.1836L31.6765 58.6679L30.6037 56.8069L21.3695 40.8041C21.034 40.2237 20.5165 39.7702 19.897 39.5138C19.2776 39.2574 18.5909 39.2125 17.9434 39.3861C17.2959 39.5596 16.7237 39.9419 16.3155 40.4736C15.9073 41.0054 15.6859 41.6569 15.6855 42.3273V47.0689C15.7507 52.7054 18.489 57.607 23.9833 58.7035L23.9952 58.745Z" fill="url(#paint0_linear_521_14220)"></path><path d="M15.6853 47.1109V25.9042C15.7461 24.5324 15.437 23.1695 14.7903 21.9582C14.1435 20.7469 13.183 19.7318 12.0092 19.0192C10.8355 18.3065 9.49171 17.9227 8.11865 17.9077C6.74559 17.8927 5.39377 18.2472 4.20476 18.9341C3.27678 19.4685 2.47163 20.1922 1.8416 21.0581C1.21157 21.924 0.770761 22.9127 0.547822 23.9601C0.547822 24.0787 0.500406 24.1972 0.482625 24.3158C-0.64937 30.5145 0.221934 36.9127 2.97026 42.5831C5.71858 48.2534 10.2011 52.9013 15.7683 55.8531C18.3764 57.2251 21.1723 58.2056 24.066 58.7633C18.5125 57.6905 15.7505 52.7711 15.6853 47.1109Z" fill="url(#paint1_linear_521_14220)"></path><path d="M7.25503 10.2321L7.18983 10.2973C5.75409 11.9653 4.5059 13.7859 3.4677 15.7264C3.26025 16.1176 3.06466 16.5087 2.875 16.9118H24.0817C24.752 16.9115 25.4036 16.6901 25.9354 16.2818C26.4671 15.8736 26.8494 15.3014 27.0229 14.6539C27.1964 14.0064 27.1515 13.3197 26.8952 12.7003C26.6388 12.0809 26.1853 11.5633 25.6049 11.2278L21.456 8.85703C16.5426 6.09507 10.9297 6.01209 7.23132 10.238L7.25503 10.2321Z" fill="url(#paint2_linear_521_14220)"></path><path d="M21.4812 8.85263L39.8548 19.456C41.4741 20.4758 43.4165 20.8524 45.2996 20.5116C47.1826 20.1708 48.8698 19.1373 50.0289 17.6146C51.188 16.092 51.735 14.1905 51.5621 12.2847C51.3893 10.3789 50.5091 8.60682 49.095 7.31755L48.8223 7.08047C44.0218 2.99827 38.045 0.552573 31.7599 0.0985321C25.4747 -0.355508 19.2084 1.20575 13.871 4.55558C11.3755 6.12586 9.12651 8.0573 7.19727 10.287C10.9016 6.00769 16.5441 6.07881 21.4812 8.85263Z" fill="url(#paint3_linear_521_14220)"></path><path d="M21.4812 8.85263L39.8548 19.456C41.4741 20.4758 43.4165 20.8524 45.2996 20.5116C47.1826 20.1708 48.8698 19.1373 50.0289 17.6146C51.188 16.092 51.735 14.1905 51.5621 12.2847C51.3893 10.3789 50.5091 8.60682 49.095 7.31755L48.8223 7.08047C44.0218 2.99827 38.045 0.552573 31.7599 0.0985321C25.4747 -0.355508 19.2084 1.20575 13.871 4.55558C11.3755 6.12586 9.12651 8.0573 7.19727 10.287C10.9016 6.00769 16.5441 6.07881 21.4812 8.85263Z" fill="url(#paint4_linear_521_14220)"></path><path d="M57.6373 19.9836L57.6076 19.8947C56.8837 17.82 55.9315 15.8322 54.7686 13.9677C54.5375 13.5943 54.2945 13.2268 54.0455 12.8594L53.7492 13.3809L52.6764 15.2361L43.4422 31.2389C43.111 31.8181 42.9794 32.4901 43.0678 33.1514C43.1563 33.8127 43.4598 34.4266 43.9316 34.8984C44.4034 35.3702 45.0172 35.6737 45.6785 35.7621C46.3399 35.8506 47.0119 35.719 47.5911 35.3878L51.7399 33.017C56.5882 30.1424 59.445 25.3119 57.6669 19.9777L57.6373 19.9836Z" fill="url(#paint5_linear_521_14220)"></path><path d="M51.7167 32.9998L33.3431 43.6032C32.0442 44.2714 30.9657 45.3004 30.2374 46.5666C29.4598 47.9084 29.1078 49.4546 29.2282 51.0008C29.3485 52.5469 29.9355 54.0201 30.9114 55.2253C31.8873 56.4306 33.2061 57.3111 34.6934 57.7504C36.1807 58.1898 37.7663 58.1672 39.2405 57.6856L39.5842 57.5671C45.5237 55.4531 50.6342 51.5 54.1729 46.2825C57.7117 41.0649 59.4943 34.8547 59.2617 28.5546C59.1483 25.6099 58.601 22.6981 57.6378 19.9131C59.487 25.2474 56.6065 30.1134 51.7108 32.9998H51.7167Z" fill="url(#paint6_linear_521_14220)"></path><g clip-path="url(#clip0_521_14220)"><path d="M30.4784 37.4206C32.624 37.4206 34.3644 35.6809 34.3644 33.5346C34.3644 31.3883 32.6247 29.6486 30.4784 29.6486C28.3321 29.6486 26.5924 27.9089 26.5924 25.7626C26.5924 23.6163 28.3328 21.8779 30.4784 21.8779C26.1865 21.8779 22.707 25.3574 22.707 29.6493C22.707 33.9412 26.1865 37.4206 30.4784 37.4206Z" fill="url(#paint7_linear_521_14220)"></path><path d="M30.4778 21.8779C28.3322 21.8779 26.5918 23.6177 26.5918 25.7633C26.5918 27.9089 28.3315 29.6493 30.4778 29.6493C32.6241 29.6493 34.3638 31.389 34.3638 33.5353C34.3638 35.6816 32.6241 37.4213 30.4778 37.4213C34.7697 37.4213 38.2492 33.9419 38.2492 29.65C38.2492 25.3581 34.7697 21.8779 30.4778 21.8779Z" fill="url(#paint8_linear_521_14220)"></path></g><ellipse cx="29.6219" cy="29.4513" rx="21.9773" ry="21.7862" fill="white"></ellipse><rect x="2.69727" y="2.90918" width="53.4091" height="53.4091" rx="26.7046" fill="#06BF66"></rect><path d="M29.6412 30.5692C33.2042 30.5692 36.1026 27.6708 36.1026 24.1079C36.1026 20.5449 33.2042 17.6465 29.6412 17.6465C26.0782 17.6465 23.1798 20.5449 23.1798 24.1079C23.1798 27.6708 26.0782 30.5692 29.6412 30.5692ZM29.6412 19.4926C32.1864 19.4926 34.2565 21.5627 34.2565 24.1079C34.2565 26.653 32.1864 28.7231 29.6412 28.7231C27.096 28.7231 25.0259 26.653 25.0259 24.1079C25.0259 21.5627 27.096 19.4926 29.6412 19.4926ZM39.1794 36.99V38.2343C39.1794 39.385 38.7597 40.4877 37.9967 41.3382C37.8145 41.5425 37.5622 41.6459 37.3087 41.6459C37.0896 41.6459 36.8693 41.5683 36.6933 41.4107C36.313 41.0711 36.2823 40.4877 36.6219 40.1074C37.081 39.5942 37.3345 38.9296 37.3345 38.2355V36.9912C37.3345 35.1279 36.0989 33.5156 34.3278 33.0713C34.0165 32.9925 33.6817 33.0357 33.4097 33.1895C31.0701 34.4916 28.2074 34.4866 25.8825 33.1931C25.6044 33.0343 25.2696 32.9888 24.9583 33.0701C23.1872 33.5156 21.9503 35.1279 21.9503 36.9912V38.2355C21.9503 38.9309 22.2039 39.5955 22.6629 40.1074C23.0026 40.4877 22.9706 41.0711 22.5915 41.4107C22.21 41.7517 21.6267 41.7185 21.2882 41.3394C20.5251 40.4877 20.1055 39.385 20.1055 38.2355V36.9912C20.1055 34.2812 21.9158 31.9329 24.5078 31.2806C25.2745 31.0861 26.1077 31.197 26.7896 31.5859C28.5495 32.5655 30.7304 32.5692 32.5052 31.5821C33.1784 31.1981 34.0116 31.0886 34.7808 31.2818C37.369 31.9304 39.1794 34.2787 39.1794 36.99Z" fill="white"></path><defs><linearGradient id="paint0_linear_521_14220" x1="-4.27286" y1="26.484" x2="26.4709" y2="53.8736" gradientUnits="userSpaceOnUse"><stop stop-color="#020C6A"></stop><stop offset="0.0001" stop-color="#0463EF"></stop><stop offset="0.81096" stop-color="#06BF66"></stop><stop offset="1" stop-color="#68EDA4"></stop></linearGradient><linearGradient id="paint1_linear_521_14220" x1="-17.4101" y1="71.3165" x2="1.36811" y2="-14.5358" gradientUnits="userSpaceOnUse"><stop stop-color="#020C6A"></stop><stop offset="0.49" stop-color="#0463EF"></stop><stop offset="1" stop-color="#5EFCA1"></stop></linearGradient><linearGradient id="paint2_linear_521_14220" x1="2.04072" y1="-15.1473" x2="-9.62758" y2="4.57024" gradientUnits="userSpaceOnUse"><stop offset="0.0104167" stop-color="#020C6A"></stop><stop offset="0.572917" stop-color="#06BF66"></stop><stop offset="1" stop-color="#62EAA0"></stop></linearGradient><linearGradient id="paint3_linear_521_14220" x1="-30.2212" y1="-48.9388" x2="34.7402" y2="10.2495" gradientUnits="userSpaceOnUse"><stop offset="0.177083" stop-color="#020C6A"></stop><stop offset="0.822917" stop-color="#0463EF"></stop><stop offset="1" stop-color="#2C7BF6"></stop></linearGradient><linearGradient id="paint4_linear_521_14220" x1="-30.2212" y1="-48.9388" x2="34.7402" y2="10.2495" gradientUnits="userSpaceOnUse"><stop offset="0.177083" stop-color="#020C6A"></stop><stop offset="0.822917" stop-color="#0463EF"></stop><stop offset="1" stop-color="#2C7BF6"></stop></linearGradient><linearGradient id="paint5_linear_521_14220" x1="50.62" y1="12.8594" x2="50.62" y2="35.789" gradientUnits="userSpaceOnUse"><stop offset="0.604725" stop-color="#06BF66"></stop><stop offset="1" stop-color="#7BF5AF"></stop></linearGradient><linearGradient id="paint6_linear_521_14220" x1="80.3305" y1="0.0958639" x2="-3.40874" y2="26.7595" gradientUnits="userSpaceOnUse"><stop offset="0.215949" stop-color="#0347C4"></stop><stop offset="0.49" stop-color="#0057E7"></stop><stop offset="0.762166" stop-color="#3784F9"></stop></linearGradient><linearGradient id="paint7_linear_521_14220" x1="28.5357" y1="21.8779" x2="28.5357" y2="37.4206" gradientUnits="userSpaceOnUse"><stop stop-color="#06BF66"></stop><stop offset="1" stop-color="#7BF5AF"></stop></linearGradient><linearGradient id="paint8_linear_521_14220" x1="26.5918" y1="21.8779" x2="41.7706" y2="27.0137" gradientUnits="userSpaceOnUse"><stop stop-color="#0057E7"></stop><stop offset="1" stop-color="#0057E7" stop-opacity="0.85"></stop></linearGradient><clipPath id="clip0_521_14220"><rect width="15.5427" height="15.5427" fill="white" transform="translate(22.707 21.8779)"></rect></clipPath></defs></svg>