<svg xmlns="http://www.w3.org/2000/svg" width="65" height="65" viewBox="0 0 65 65" fill="none"><rect x="0.839844" y="0.0947266" width="64" height="64" rx="10" fill="#0057E7"></rect><path d="M25.045 28.8123C25.045 28.1329 25.5964 27.5815 26.2757 27.5815H39.4039C40.0833 27.5815 40.6347 28.1329 40.6347 28.8123C40.6347 29.4917 40.0833 30.043 39.4039 30.043H26.2757C25.5964 30.043 25.045 29.4917 25.045 28.8123ZM27.9168 25.12H37.7629C38.4423 25.12 38.9937 24.5686 38.9937 23.8892C38.9937 23.2098 38.4423 22.6584 37.7629 22.6584H27.9168C27.2374 22.6584 26.686 23.2098 26.686 23.8892C26.686 24.5686 27.2374 25.12 27.9168 25.12ZM48.8398 34.5346V38.6584C48.8398 42.9563 45.3428 46.4533 41.045 46.4533H24.6347C20.3369 46.4533 16.8398 42.9563 16.8398 38.6584V34.5346C16.8398 33.8717 16.9465 33.2168 17.1549 32.5883L20.3303 23.0655C21.3921 19.8786 24.3639 17.7354 27.7248 17.7354H37.9549C41.3158 17.7354 44.286 19.877 45.3494 23.0655L48.5247 32.5883C48.7332 33.2152 48.8398 33.87 48.8398 34.5346ZM19.7772 32.5046H27.9168C28.5962 32.5046 29.1475 33.056 29.1475 33.7354C29.1475 35.7719 30.8033 37.4277 32.8398 37.4277C34.8764 37.4277 36.5322 35.7719 36.5322 33.7354C36.5322 33.056 37.0835 32.5046 37.7629 32.5046H45.9024L43.0158 23.8433C42.2889 21.6624 40.2556 20.1969 37.9565 20.1969H27.7264C25.4273 20.1969 23.3941 21.6624 22.6672 23.8433L19.7772 32.5046ZM46.3783 38.6584V34.9661H38.8706C38.2979 37.7706 35.8117 39.8892 32.8398 39.8892C29.8679 39.8892 27.3818 37.7706 26.8091 34.9661H19.3014V38.6584C19.3014 41.5991 21.694 43.9918 24.6347 43.9918H41.045C43.9857 43.9918 46.3783 41.5991 46.3783 38.6584Z" fill="white"></path></svg>