<svg xmlns="http://www.w3.org/2000/svg" width="69" height="68" viewBox="0 0 69 68" fill="none"><rect x="0.5" width="68" height="68" rx="20" fill="#0057E7"></rect><g opacity="0.84992" clip-path="url(#clip0_261_1921)"><path opacity="0.4" d="M44.7179 13H25.3711C18.3207 13 14.3262 16.9946 14.3262 24.0448V43.3733C14.3262 50.4237 18.3207 54.4183 25.3711 54.4183H44.7179C51.7683 54.4183 55.7444 50.4237 55.7444 43.3733V24.0448C55.7444 16.9946 51.7683 13 44.7179 13Z" fill="white"></path></g><path d="M35 38.9497C34.021 38.9497 33.0641 38.6594 32.2501 38.1155C31.4361 37.5716 30.8017 36.7986 30.4271 35.8942C30.0525 34.9897 29.9545 33.9945 30.1454 33.0344C30.3364 32.0742 30.8078 31.1923 31.5001 30.5001C32.1923 29.8078 33.0742 29.3364 34.0344 29.1454C34.9945 28.9545 35.9897 29.0525 36.8942 29.4271C37.7986 29.8017 38.5716 30.4361 39.1155 31.2501C39.6594 32.0641 39.9497 33.021 39.9497 34C39.9483 35.3123 39.4263 36.5705 38.4984 37.4984C37.5705 38.4263 36.3123 38.9483 35 38.9497ZM35 31.0302C34.4126 31.0302 33.8384 31.2044 33.3501 31.5307C32.8617 31.857 32.481 32.3208 32.2563 32.8635C32.0315 33.4062 31.9727 34.0033 32.0873 34.5794C32.2019 35.1555 32.4847 35.6846 32.9 36.1C33.3154 36.5153 33.8445 36.7981 34.4206 36.9127C34.9967 37.0273 35.5938 36.9685 36.1365 36.7437C36.6792 36.519 37.143 36.1383 37.4693 35.6499C37.7956 35.1616 37.9698 34.5874 37.9698 34C37.9691 33.2126 37.656 32.4576 37.0992 31.9008C36.5424 31.344 35.7874 31.0309 35 31.0302ZM35.66 46.8691H34.34C33.5526 46.8684 32.7976 46.5553 32.2408 45.9985C31.6841 45.4417 31.3709 44.6868 31.3702 43.8993C31.3719 43.8042 31.3452 43.7106 31.2934 43.6307C31.2417 43.5508 31.1674 43.4881 31.0799 43.4506H31.0693C30.9896 43.4176 30.9019 43.409 30.8173 43.4259C30.7327 43.4428 30.655 43.4845 30.5941 43.5456C30.0329 44.1005 29.2771 44.4139 28.4879 44.4191C27.6988 44.4243 26.9388 44.1208 26.3704 43.5733L25.4465 42.6415C25.1699 42.3655 24.9504 42.0376 24.8007 41.6767C24.6509 41.3158 24.5739 40.9289 24.5739 40.5382C24.5739 40.1474 24.6509 39.7605 24.8007 39.3996C24.9504 39.0387 25.1699 38.7109 25.4465 38.4349C25.512 38.3677 25.5565 38.2828 25.5745 38.1907C25.5926 38.0986 25.5834 38.0032 25.5481 37.9162C25.5159 37.8339 25.4599 37.7631 25.3872 37.7128C25.3146 37.6625 25.2286 37.635 25.1403 37.6337C24.747 37.6376 24.3569 37.5635 23.9923 37.4159C23.6278 37.2682 23.2961 37.0499 23.0164 36.7734C22.7366 36.497 22.5144 36.1679 22.3624 35.8052C22.2104 35.4425 22.1317 35.0532 22.1309 34.66V33.34C22.1316 32.5526 22.4447 31.7976 23.0015 31.2408C23.5583 30.6841 24.3132 30.3709 25.1007 30.3702C25.1957 30.3722 25.2892 30.3455 25.369 30.2938C25.4487 30.242 25.5111 30.1675 25.5481 30.0799V30.0693C25.5808 29.9895 25.5892 29.9019 25.5722 29.8174C25.5553 29.7329 25.5139 29.6552 25.4531 29.5941C25.1719 29.3198 24.948 28.9924 24.7942 28.6308C24.6405 28.2693 24.56 27.8809 24.5574 27.4881C24.5548 27.0952 24.6302 26.7058 24.7792 26.3423C24.9282 25.9788 25.1478 25.6484 25.4254 25.3704L26.3612 24.4346C26.9263 23.8933 27.6786 23.5911 28.4612 23.5911C29.2437 23.5911 29.996 23.8933 30.5611 24.4346C30.6278 24.5039 30.7137 24.5518 30.8078 24.572C30.9018 24.5922 30.9998 24.5839 31.0891 24.5481C31.171 24.516 31.2414 24.4601 31.2912 24.3877C31.3411 24.3152 31.3682 24.2295 31.3689 24.1416C31.3649 23.7484 31.4387 23.3584 31.5861 22.9939C31.7335 22.6294 31.9516 22.2976 32.2278 22.0178C32.504 21.7379 32.8328 21.5155 33.1953 21.3633C33.5578 21.211 33.9469 21.1321 34.34 21.1309H35.66C36.4474 21.1316 37.2024 21.4447 37.7592 22.0015C38.3159 22.5583 38.6291 23.3132 38.6298 24.1007C38.625 24.1936 38.6491 24.2856 38.6988 24.3643C38.7484 24.443 38.8211 24.5044 38.9069 24.5402C38.9904 24.5758 39.0823 24.5868 39.1718 24.5721C39.2613 24.5574 39.3448 24.5175 39.4125 24.457C39.6882 24.1745 40.0176 23.9499 40.3815 23.7967C40.7453 23.6435 41.1361 23.5646 41.5309 23.5648C41.9211 23.5637 42.3076 23.64 42.6681 23.7893C43.0285 23.9386 43.3558 24.1579 43.6309 24.4346L44.5628 25.3585C44.8385 25.6343 45.0573 25.9617 45.2065 26.322C45.3558 26.6823 45.4326 27.0685 45.4326 27.4585C45.4326 27.8485 45.3558 28.2347 45.2065 28.595C45.0573 28.9553 44.8385 29.2827 44.5628 29.5585C44.4927 29.6204 44.4436 29.7025 44.4221 29.7935C44.4006 29.8845 44.4077 29.9799 44.4426 30.0667L44.4506 30.0851C44.4827 30.1665 44.5385 30.2364 44.6107 30.2858C44.6829 30.3352 44.7683 30.3619 44.8558 30.3623C45.2497 30.358 45.6406 30.4317 46.0058 30.5794C46.3711 30.7271 46.7034 30.9457 46.9836 31.2226C47.2639 31.4995 47.4864 31.8292 47.6384 32.1926C47.7904 32.5561 47.8688 32.9461 47.8691 33.34V34.66C47.8684 35.4474 47.5553 36.2024 46.9985 36.7592C46.4417 37.3159 45.6868 37.6291 44.8993 37.6298C44.8064 37.625 44.7144 37.6491 44.6357 37.6988C44.557 37.7484 44.4956 37.8211 44.4598 37.9069C44.4247 37.9905 44.4139 38.0823 44.4286 38.1717C44.4433 38.2611 44.483 38.3446 44.543 38.4125C44.8238 38.6872 45.0473 39.0149 45.2006 39.3766C45.3539 39.7383 45.4339 40.1268 45.436 40.5196C45.4381 40.9125 45.3622 41.3018 45.2128 41.6651C45.0633 42.0285 44.8433 42.3585 44.5654 42.6362L43.6415 43.568C43.0763 44.1094 42.324 44.4115 41.5415 44.4115C40.7589 44.4115 40.0066 44.1094 39.4415 43.568C39.3795 43.4982 39.2974 43.4491 39.2064 43.4276C39.1155 43.4061 39.0201 43.4132 38.9333 43.4479C38.8494 43.4808 38.7767 43.5373 38.7242 43.6107C38.6718 43.684 38.6417 43.771 38.6377 43.8611C38.6413 44.2546 38.567 44.6449 38.4191 45.0095C38.2711 45.3741 38.0524 45.7058 37.7755 45.9855C37.4987 46.2652 37.1692 46.4872 36.8061 46.6389C36.443 46.7906 36.0535 46.8688 35.66 46.8691ZM31.9523 41.6792C32.3651 41.8774 32.7146 42.1866 32.9615 42.5722C33.2084 42.9578 33.3429 43.4046 33.3501 43.8624C33.3464 43.9951 33.3692 44.1273 33.4172 44.2511C33.4652 44.375 33.5374 44.488 33.6295 44.5836C33.7217 44.6792 33.832 44.7555 33.954 44.808C34.076 44.8605 34.2072 44.8881 34.34 44.8893H35.66C35.9225 44.8893 36.1743 44.785 36.3599 44.5993C36.5456 44.4137 36.6499 44.1619 36.6499 43.8993C36.6492 43.4116 36.793 42.9345 37.0632 42.5284C37.3333 42.1222 37.7177 41.8052 38.1678 41.6172C38.6092 41.4342 39.095 41.3868 39.5634 41.4808C40.0319 41.5748 40.4618 41.8061 40.7984 42.1452C40.8894 42.2424 40.9989 42.3204 41.1206 42.3745C41.2422 42.4287 41.3735 42.458 41.5066 42.4605C41.6397 42.4631 41.772 42.439 41.8957 42.3896C42.0193 42.3402 42.1318 42.2665 42.2265 42.1729L43.1584 41.249C43.3443 41.0628 43.4488 40.8105 43.4488 40.5474C43.4488 40.2843 43.3443 40.032 43.1584 39.8459C42.8194 39.5046 42.5872 39.0718 42.4904 38.6006C42.3936 38.1294 42.4363 37.6402 42.6133 37.1929V37.1744L42.6225 37.1519C42.8039 36.7095 43.1133 36.3313 43.5109 36.0656C43.9084 35.7999 44.3763 35.6588 44.8545 35.6604C44.987 35.664 45.119 35.641 45.2426 35.5929C45.3662 35.5449 45.479 35.4726 45.5744 35.3805C45.6697 35.2883 45.7458 35.178 45.798 35.0561C45.8503 34.9342 45.8777 34.8031 45.8787 34.6705V33.3506C45.8787 33.0881 45.7744 32.8363 45.5888 32.6506C45.4031 32.465 45.1513 32.3607 44.8888 32.3607C44.405 32.3667 43.9304 32.2279 43.5261 31.9621C43.1218 31.6963 42.8062 31.3157 42.6199 30.8692C42.4281 30.4222 42.3753 29.9279 42.4683 29.4505C42.5613 28.9731 42.7957 28.5347 43.1412 28.1924C43.2407 28.0987 43.3202 27.9859 43.3749 27.8607C43.4296 27.7354 43.4583 27.6004 43.4593 27.4638C43.4597 27.3338 43.4342 27.205 43.3844 27.0849C43.3345 26.9648 43.2613 26.8558 43.1689 26.7642L42.245 25.8324C42.1529 25.7405 42.0436 25.6677 41.9233 25.6181C41.8031 25.5685 41.6742 25.5431 41.5441 25.5433C41.4137 25.5427 41.2846 25.5682 41.1642 25.6183C41.0438 25.6684 40.9347 25.7421 40.8433 25.835C40.5016 26.1734 40.0688 26.4052 39.5978 26.502C39.1267 26.5988 38.6377 26.5564 38.1902 26.3801L38.1678 26.3762L38.1453 26.3669C37.7029 26.1855 37.3247 25.8762 37.059 25.4786C36.7933 25.081 36.6522 24.6132 36.6538 24.135C36.6574 24.0024 36.6344 23.8704 36.5863 23.7468C36.5383 23.6232 36.466 23.5105 36.3739 23.4151C36.2817 23.3197 36.1714 23.2437 36.0495 23.1914C35.9276 23.1392 35.7965 23.1117 35.6639 23.1107H34.344C34.0815 23.1107 33.8297 23.215 33.644 23.4007C33.4584 23.5863 33.3541 23.8381 33.3541 24.1007C33.3598 24.5879 33.2187 25.0655 32.9491 25.4714C32.6796 25.8772 32.2941 26.1925 31.8428 26.3762C31.3988 26.5583 30.9111 26.6063 30.4401 26.5144C29.9691 26.4224 29.5353 26.1945 29.1924 25.8588C29.1012 25.7623 28.9918 25.6849 28.8704 25.6312C28.749 25.5775 28.6182 25.5485 28.4854 25.5459C28.3527 25.5433 28.2208 25.5672 28.0975 25.6162C27.9741 25.6651 27.8617 25.7382 27.7669 25.8311L26.8311 26.7669C26.7391 26.8588 26.6661 26.968 26.6163 27.0881C26.5665 27.2083 26.5409 27.337 26.5409 27.4671C26.5409 27.5971 26.5665 27.7259 26.6163 27.8461C26.6661 27.9662 26.7391 28.0754 26.8311 28.1673C27.1789 28.5054 27.4174 28.9401 27.5158 29.4151C27.6141 29.8902 27.5678 30.3838 27.3828 30.8322C27.3647 30.8774 27.344 30.9215 27.3208 30.9642C27.121 31.3748 26.8111 31.7218 26.4256 31.9665C26.0401 32.2112 25.5942 32.344 25.1376 32.3501C25.0049 32.3464 24.8727 32.3692 24.7489 32.4172C24.625 32.4652 24.512 32.5374 24.4164 32.6295C24.3208 32.7217 24.2445 32.832 24.192 32.954C24.1395 33.076 24.1119 33.2072 24.1107 33.34V34.66C24.1107 34.9225 24.215 35.1743 24.4007 35.3599C24.5863 35.5456 24.8381 35.6499 25.1007 35.6499C25.585 35.6437 26.0601 35.783 26.4644 36.0499C26.8687 36.3168 27.1836 36.6988 27.3683 37.1467L27.3762 37.1638L27.3828 37.1823C27.5598 37.6262 27.6041 38.1119 27.5104 38.5805C27.4167 39.0491 27.1889 39.4805 26.8548 39.8221C26.7575 39.9144 26.6799 40.0256 26.6268 40.1488C26.5737 40.272 26.5462 40.4047 26.546 40.5388C26.545 40.6692 26.57 40.7985 26.6197 40.9191C26.6693 41.0397 26.7425 41.1491 26.835 41.241L27.7669 42.165C27.9555 42.3451 28.2063 42.4457 28.4671 42.4457C28.7279 42.4457 28.9787 42.3451 29.1673 42.165C29.506 41.8179 29.9408 41.5803 30.4158 41.4826C30.8908 41.385 31.3841 41.4319 31.8322 41.6172C31.8734 41.6357 31.9135 41.6564 31.9523 41.6792Z" fill="white"></path><defs><clipPath id="clip0_261_1921"><rect width="42" height="42" fill="white" transform="translate(14 13)"></rect></clipPath></defs></svg>