<svg xmlns="http://www.w3.org/2000/svg" width="69" height="68" viewBox="0 0 69 68" fill="none"><rect x="0.5" width="68" height="68" rx="20" fill="#0057E7"></rect><g opacity="0.84992" clip-path="url(#clip0_248_13121)"><path opacity="0.4" d="M44.7179 13H25.3711C18.3207 13 14.3262 16.9946 14.3262 24.0448V43.3733C14.3262 50.4237 18.3207 54.4183 25.3711 54.4183H44.7179C51.7683 54.4183 55.7444 50.4237 55.7444 43.3733V24.0448C55.7444 16.9946 51.7683 13 44.7179 13Z" fill="white"></path></g><path d="M35 35.038C38.6226 35.038 41.5703 32.0904 41.5703 28.4677C41.5703 24.8451 38.6226 21.8975 35 21.8975C31.3774 21.8975 28.4297 24.8451 28.4297 28.4677C28.4297 32.0904 31.3774 35.038 35 35.038ZM35 23.9723C37.4787 23.9723 39.4954 25.989 39.4954 28.4677C39.4954 30.9464 37.4787 32.9632 35 32.9632C32.5213 32.9632 30.5046 30.9464 30.5046 28.4677C30.5046 25.989 32.5213 23.9723 35 23.9723ZM44.3367 41.47V42.6678C44.3367 43.8117 43.9176 44.9086 43.1582 45.7565C42.9549 45.9862 42.6699 46.1023 42.385 46.1023C42.1374 46.1023 41.8912 46.0151 41.6934 45.8381C41.2659 45.4563 41.23 44.8007 41.6118 44.3733C42.0295 43.9058 42.2605 43.2999 42.2605 42.6678V41.47C42.2605 39.7423 41.1152 38.2485 39.4761 37.8377C39.2078 37.7699 38.9283 37.8071 38.7001 37.9358C36.4012 39.2166 33.585 39.2111 31.3041 37.9413C31.0648 37.8058 30.7854 37.7711 30.5212 37.8362C28.8807 38.2484 27.7353 39.7423 27.7353 41.47V42.6678C27.7353 43.2999 27.9663 43.9058 28.3841 44.3733C28.7658 44.8007 28.7299 45.4563 28.3025 45.8381C27.8765 46.2185 27.2194 46.184 26.8377 45.7565C26.0783 44.9086 25.6592 43.8103 25.6592 42.6678V41.47C25.6592 38.7907 27.449 36.4696 30.0121 35.8236C30.7867 35.6272 31.6319 35.7393 32.3193 36.1335C33.9668 37.0492 36.0139 37.0547 37.6807 36.1279C38.3584 35.7392 39.2008 35.6258 39.9795 35.825C42.5468 36.4696 44.3367 38.7907 44.3367 41.47ZM42.3214 22.8256C42.5123 22.2862 43.1042 22.0026 43.6451 22.1935C45.713 22.9238 47.1031 24.8894 47.1031 27.0845C47.1031 28.559 46.4724 29.9672 45.3741 30.9507C45.1749 31.1277 44.9287 31.2147 44.6825 31.2147C44.3976 31.2147 44.114 31.0985 43.9092 30.8689C43.5275 30.4415 43.5635 29.7859 43.9909 29.4042C44.6507 28.8149 45.0283 27.9698 45.0283 27.0845C45.0283 25.7677 44.1942 24.5879 42.9535 24.1494C42.4126 23.9585 42.1305 23.3651 42.3214 22.8256ZM48.4863 37.9192V38.918C48.4863 39.4906 48.0216 39.9554 47.4489 39.9554C46.8763 39.9554 46.4115 39.4906 46.4115 38.918V37.9192C46.4115 36.5595 45.511 35.3838 44.2219 35.0601C43.6672 34.9204 43.3283 34.3574 43.468 33.8013C43.6091 33.2453 44.1748 32.9093 44.7267 33.0476C46.9413 33.6036 48.4863 35.6065 48.4863 37.9192ZM24.6259 31.5648C23.5276 30.5813 22.8969 29.1731 22.8969 27.6986C22.8969 25.5035 24.287 23.5379 26.3549 22.8076C26.8999 22.6167 27.4877 22.9003 27.6786 23.4397C27.8695 23.9806 27.5874 24.5726 27.0465 24.7635C25.8058 25.202 24.9717 26.3818 24.9717 27.6986C24.9717 28.5825 25.3493 29.4276 26.0091 30.0183C26.4365 30.4 26.4725 31.0558 26.0908 31.4832C25.8874 31.7128 25.6024 31.829 25.3175 31.829C25.0713 31.829 24.8237 31.7418 24.6259 31.5648ZM25.7781 35.6742C24.489 35.9979 23.5885 37.1736 23.5885 38.5333V39.5334C23.5885 40.1061 23.1237 40.5708 22.5511 40.5708C21.9784 40.5708 21.5137 40.1061 21.5137 39.5334V38.5347C21.5137 36.222 23.0601 34.2191 25.2733 33.663C25.8279 33.5275 26.3923 33.8609 26.532 34.417C26.6717 34.9702 26.3342 35.5345 25.7781 35.6742Z" fill="white"></path><defs><clipPath id="clip0_248_13121"><rect width="42" height="42" fill="white" transform="translate(14 13)"></rect></clipPath></defs></svg>