<svg xmlns="http://www.w3.org/2000/svg" width="60" height="60" viewBox="0 0 60 60" fill="none"><path d="M23.9952 58.745H24.09C26.2513 59.1579 28.4519 59.3289 30.6511 59.2547C31.0897 59.2547 31.5343 59.2191 31.9728 59.1836L31.6765 58.6679L30.6037 56.8069L21.3695 40.8041C21.034 40.2237 20.5165 39.7702 19.897 39.5138C19.2776 39.2574 18.5909 39.2125 17.9434 39.3861C17.2959 39.5596 16.7237 39.9419 16.3155 40.4736C15.9073 41.0054 15.6859 41.6569 15.6855 42.3273V47.0689C15.7507 52.7054 18.489 57.607 23.9833 58.7035L23.9952 58.745Z" fill="url(#paint0_linear_165_6185)"></path><path d="M15.6853 47.1109V25.9042C15.7461 24.5324 15.437 23.1695 14.7903 21.9582C14.1435 20.7469 13.183 19.7318 12.0092 19.0192C10.8355 18.3065 9.49171 17.9227 8.11865 17.9077C6.74559 17.8927 5.39377 18.2472 4.20476 18.9341C3.27678 19.4685 2.47163 20.1922 1.8416 21.0581C1.21157 21.924 0.770761 22.9127 0.547822 23.9601C0.547822 24.0787 0.500406 24.1972 0.482625 24.3158C-0.64937 30.5145 0.221934 36.9127 2.97026 42.5831C5.71858 48.2534 10.2011 52.9013 15.7683 55.8531C18.3764 57.2251 21.1723 58.2056 24.066 58.7633C18.5125 57.6905 15.7505 52.7711 15.6853 47.1109Z" fill="url(#paint1_linear_165_6185)"></path><path d="M7.25503 10.2321L7.18983 10.2973C5.75409 11.9653 4.5059 13.7859 3.4677 15.7264C3.26025 16.1176 3.06466 16.5087 2.875 16.9118H24.0817C24.752 16.9115 25.4036 16.6901 25.9354 16.2818C26.4671 15.8736 26.8494 15.3014 27.0229 14.6539C27.1964 14.0064 27.1515 13.3197 26.8952 12.7003C26.6388 12.0809 26.1853 11.5633 25.6049 11.2278L21.456 8.85703C16.5426 6.09507 10.9297 6.01209 7.23132 10.238L7.25503 10.2321Z" fill="url(#paint2_linear_165_6185)"></path><path d="M21.4812 8.85263L39.8548 19.456C41.4741 20.4758 43.4165 20.8524 45.2996 20.5116C47.1826 20.1708 48.8698 19.1373 50.0289 17.6146C51.188 16.092 51.735 14.1905 51.5621 12.2847C51.3893 10.3789 50.5091 8.60682 49.095 7.31755L48.8223 7.08047C44.0218 2.99827 38.045 0.552573 31.7599 0.0985321C25.4747 -0.355508 19.2084 1.20575 13.871 4.55558C11.3755 6.12586 9.12651 8.0573 7.19727 10.287C10.9016 6.00769 16.5441 6.07881 21.4812 8.85263Z" fill="url(#paint3_linear_165_6185)"></path><path d="M21.4812 8.85263L39.8548 19.456C41.4741 20.4758 43.4165 20.8524 45.2996 20.5116C47.1826 20.1708 48.8698 19.1373 50.0289 17.6146C51.188 16.092 51.735 14.1905 51.5621 12.2847C51.3893 10.3789 50.5091 8.60682 49.095 7.31755L48.8223 7.08047C44.0218 2.99827 38.045 0.552573 31.7599 0.0985321C25.4747 -0.355508 19.2084 1.20575 13.871 4.55558C11.3755 6.12586 9.12651 8.0573 7.19727 10.287C10.9016 6.00769 16.5441 6.07881 21.4812 8.85263Z" fill="url(#paint4_linear_165_6185)"></path><path d="M57.6373 19.9836L57.6076 19.8947C56.8837 17.82 55.9315 15.8322 54.7686 13.9677C54.5375 13.5943 54.2945 13.2268 54.0455 12.8594L53.7492 13.3809L52.6764 15.2361L43.4422 31.2389C43.111 31.8181 42.9794 32.4901 43.0678 33.1514C43.1563 33.8127 43.4598 34.4266 43.9316 34.8984C44.4034 35.3702 45.0172 35.6737 45.6785 35.7621C46.3399 35.8506 47.0119 35.719 47.5911 35.3878L51.7399 33.017C56.5882 30.1424 59.445 25.3119 57.6669 19.9777L57.6373 19.9836Z" fill="url(#paint5_linear_165_6185)"></path><path d="M51.7167 32.9998L33.3431 43.6032C32.0442 44.2714 30.9657 45.3004 30.2374 46.5666C29.4598 47.9084 29.1078 49.4546 29.2282 51.0008C29.3485 52.5469 29.9355 54.0201 30.9114 55.2253C31.8873 56.4306 33.2061 57.3111 34.6934 57.7504C36.1807 58.1898 37.7663 58.1672 39.2405 57.6856L39.5842 57.5671C45.5237 55.4531 50.6342 51.5 54.1729 46.2825C57.7117 41.0649 59.4943 34.8547 59.2617 28.5546C59.1483 25.6099 58.601 22.6981 57.6378 19.9131C59.487 25.2474 56.6065 30.1134 51.7108 32.9998H51.7167Z" fill="url(#paint6_linear_165_6185)"></path><g clip-path="url(#clip0_165_6185)"><path d="M30.4784 37.4206C32.624 37.4206 34.3644 35.6809 34.3644 33.5346C34.3644 31.3883 32.6247 29.6486 30.4784 29.6486C28.3321 29.6486 26.5924 27.9089 26.5924 25.7626C26.5924 23.6163 28.3328 21.8779 30.4784 21.8779C26.1865 21.8779 22.707 25.3574 22.707 29.6493C22.707 33.9412 26.1865 37.4206 30.4784 37.4206Z" fill="url(#paint7_linear_165_6185)"></path><path d="M30.4778 21.8779C28.3322 21.8779 26.5918 23.6177 26.5918 25.7633C26.5918 27.9089 28.3315 29.6493 30.4778 29.6493C32.6241 29.6493 34.3638 31.389 34.3638 33.5353C34.3638 35.6816 32.6241 37.4213 30.4778 37.4213C34.7697 37.4213 38.2492 33.9419 38.2492 29.65C38.2492 25.3581 34.7697 21.8779 30.4778 21.8779Z" fill="url(#paint8_linear_165_6185)"></path></g><ellipse cx="29.6219" cy="29.4513" rx="21.9773" ry="21.7862" fill="white"></ellipse><rect x="2.69727" y="2.90918" width="53.4091" height="53.4091" rx="26.7046" fill="#06BF66"></rect><path fill-rule="evenodd" clip-rule="evenodd" d="M26.1419 36.7342C26.1419 37.0216 26.3738 37.2535 26.6612 37.2535C26.9485 37.2535 27.1805 37.0216 27.1805 36.7342V36.388C27.1805 36.1007 26.9485 35.8687 26.6612 35.8687C26.3738 35.8687 26.1419 36.1007 26.1419 36.388V36.7342ZM32.8478 36.7342C32.8478 37.0216 32.6159 37.2535 32.3285 37.2535C32.0412 37.2535 31.8092 37.0216 31.8092 36.7342V36.388C31.8092 36.1007 32.0412 35.8687 32.3285 35.8687C32.6159 35.8687 32.8478 36.1007 32.8478 36.388V36.7342ZM30.0124 36.9212C30.0124 37.2085 29.7805 37.4405 29.4931 37.4405C29.2058 37.4405 28.9738 37.2085 28.9738 36.9212V36.5749C28.9738 36.2876 29.2058 36.0556 29.4931 36.0556C29.7805 36.0556 30.0124 36.2876 30.0124 36.5749V36.9212ZM29.4931 39.5177C29.2058 39.5177 28.9738 39.2857 28.9738 38.9984V38.6522C28.9738 38.3648 29.2058 38.1329 29.4931 38.1329C29.7805 38.1329 30.0124 38.3648 30.0124 38.6522V38.9984C30.0124 39.2857 29.7805 39.5177 29.4931 39.5177ZM24.2343 38.0671H24.5805C24.8679 38.0671 25.0998 38.299 25.0998 38.5864C25.0998 38.8737 24.8679 39.1057 24.5805 39.1057H24.2343C23.947 39.1057 23.715 38.8737 23.715 38.5864C23.715 38.299 23.947 38.0671 24.2343 38.0671ZM26.6577 38.0671C26.9451 38.0671 27.177 38.299 27.177 38.5864C27.177 38.8737 26.9451 39.1057 26.6577 39.1057H26.3115C26.0242 39.1057 25.7922 38.8737 25.7922 38.5864C25.7922 38.299 26.0242 38.0671 26.3115 38.0671H26.6577ZM34.4023 38.0671H34.7485C35.0358 38.0671 35.2678 38.299 35.2678 38.5864C35.2678 38.8737 35.0358 39.1057 34.7485 39.1057H34.4023C34.1149 39.1057 33.883 38.8737 33.883 38.5864C33.883 38.299 34.1149 38.0671 34.4023 38.0671ZM32.3251 38.0671H32.6713C32.9586 38.0671 33.1906 38.299 33.1906 38.5864C33.1906 38.8737 32.9586 39.1057 32.6713 39.1057H32.3251C32.0377 39.1057 31.8058 38.8737 31.8058 38.5864C31.8058 38.299 32.0377 38.0671 32.3251 38.0671ZM29.4931 45.9189C30.9229 45.9189 32.0896 44.7557 32.0896 43.3224C32.0896 42.0692 31.1964 41.0202 30.0124 40.7778V40.7294C30.0124 40.442 29.7805 40.2101 29.4931 40.2101C29.2058 40.2101 28.9738 40.442 28.9738 40.7294V40.7778C27.7898 41.0167 26.8966 42.0692 26.8966 43.3224C26.8966 44.7522 28.0633 45.9189 29.4931 45.9189ZM29.4931 41.7645C30.3517 41.7645 31.051 42.4638 31.051 43.3224C31.051 44.0044 30.6114 44.5791 30.002 44.7903C29.8428 44.8457 29.6732 44.8838 29.4931 44.8838C29.3131 44.8838 29.1435 44.8457 28.9842 44.7903C28.3749 44.5757 27.9352 44.001 27.9352 43.3224C27.9352 42.4638 28.6345 41.7645 29.4931 41.7645ZM29.4897 45.4031C29.6662 45.4031 29.8359 45.3789 29.9986 45.3373C29.9984 45.3381 29.9983 45.3389 29.9981 45.3397C29.8374 45.3802 29.67 45.4038 29.4958 45.4038C29.4217 45.4038 29.3487 45.3995 29.277 45.3915C29.3467 45.3991 29.4176 45.4031 29.4897 45.4031ZM28.9871 45.3389C28.985 45.3384 28.9829 45.3379 28.9807 45.3373C29.0256 45.5552 29.2069 45.7227 29.434 45.7464C29.2101 45.7204 29.0319 45.5544 28.9871 45.3389ZM38.0582 41.1829C39.488 41.1829 40.6547 40.0197 40.6547 38.5864C40.6547 37.1566 39.488 35.9899 38.0582 35.9899C36.6284 35.9899 35.4617 37.1531 35.4617 38.5864C35.4617 40.0162 36.6284 41.1829 38.0582 41.1829ZM38.0582 37.0285C38.9168 37.0285 39.6161 37.7278 39.6161 38.5864C39.6161 39.445 38.9168 40.1443 38.0582 40.1443C37.3796 40.1443 36.8084 39.7081 36.5937 39.1057C36.5349 38.943 36.4968 38.7699 36.4968 38.5864C36.4968 38.4029 36.5349 38.2298 36.5937 38.0671C36.8084 37.4647 37.3831 37.0285 38.0582 37.0285ZM20.7723 41.1829C22.2021 41.1829 23.3688 40.0197 23.3688 38.5864C23.3688 37.1566 22.2021 35.9899 20.7723 35.9899C19.3425 35.9899 18.1758 37.1566 18.1758 38.5864C18.1758 40.0162 19.3425 41.1829 20.7723 41.1829ZM22.2333 38.0671C22.2921 38.2298 22.3302 38.4029 22.3302 38.5864C22.3302 38.7699 22.2921 38.943 22.2333 39.1057C22.0186 39.7081 21.4439 40.1443 20.7688 40.1443C19.9103 40.1443 19.2109 39.445 19.2109 38.5864C19.2109 37.7278 19.9103 37.0285 20.7688 37.0285C21.4474 37.0285 22.0186 37.4647 22.2333 38.0671ZM30.3344 19.9157C30.3344 19.6284 30.5664 19.3964 30.8537 19.3964C31.1411 19.3964 31.373 19.6284 31.373 19.9157V20.6497C31.373 20.937 31.1411 21.169 30.8537 21.169C30.5664 21.169 30.3344 20.937 30.3344 20.6497V19.9157ZM36.0087 19.9157C36.0087 19.6284 36.2406 19.3964 36.528 19.3964C36.8153 19.3964 37.0473 19.6284 37.0473 19.9157V20.6497C37.0473 20.937 36.8153 21.169 36.528 21.169C36.2406 21.169 36.0087 20.937 36.0087 20.6497V19.9157ZM33.1733 19.9157C33.1733 19.6284 33.4052 19.3964 33.6926 19.3964C33.9799 19.3964 34.2119 19.6284 34.2119 19.9157V20.6497C34.2119 20.937 33.9799 21.169 33.6926 21.169C33.4052 21.169 33.1733 20.937 33.1733 20.6497V19.9157ZM30.3379 23.4608C30.3379 23.1735 30.5698 22.9415 30.8572 22.9415C31.1445 22.9415 31.3765 23.1735 31.3765 23.4608V24.1948C31.3765 24.4821 31.1445 24.7141 30.8572 24.7141C30.5698 24.7141 30.3379 24.4821 30.3379 24.1948V23.4608ZM36.0121 23.4608C36.0121 23.1735 36.2441 22.9415 36.5314 22.9415C36.8188 22.9415 37.0507 23.1735 37.0507 23.4608V24.1948C37.0507 24.4821 36.8188 24.7141 36.5314 24.7141C36.2441 24.7141 36.0121 24.4821 36.0121 24.1948V23.4608ZM33.1767 23.4608C33.1767 23.1735 33.4087 22.9415 33.696 22.9415C33.9834 22.9415 34.2153 23.1735 34.2153 23.4608V24.1948C34.2153 24.4821 33.9834 24.7141 33.696 24.7141C33.4087 24.7141 33.1767 24.4821 33.1767 24.1948V23.4608ZM30.3413 27.0059C30.3413 26.7186 30.5733 26.4866 30.8606 26.4866C31.148 26.4866 31.3799 26.7186 31.3799 27.0059V27.7399C31.3799 28.0272 31.148 28.2592 30.8606 28.2592C30.5733 28.2592 30.3413 28.0272 30.3413 27.7399V27.0059ZM36.0156 27.0059C36.0156 26.7186 36.2475 26.4866 36.5349 26.4866C36.8222 26.4866 37.0542 26.7186 37.0542 27.0059V27.7399C37.0542 28.0272 36.8222 28.2592 36.5349 28.2592C36.2475 28.2592 36.0156 28.0272 36.0156 27.7399V27.0059ZM33.1802 27.0059C33.1802 26.7186 33.4121 26.4866 33.6995 26.4866C33.9868 26.4866 34.2188 26.7186 34.2188 27.0059V27.7399C34.2188 28.0272 33.9868 28.2592 33.6995 28.2592C33.4121 28.2592 33.1802 28.0272 33.1802 27.7399V27.0059ZM30.3448 30.551C30.3448 30.2637 30.5767 30.0317 30.8641 30.0317C31.1514 30.0317 31.3834 30.2637 31.3834 30.551V31.285C31.3834 31.5723 31.1514 31.8043 30.8641 31.8043C30.5767 31.8043 30.3448 31.5723 30.3448 31.285V30.551ZM22.943 20.8228H23.6769C23.9643 20.8228 24.1962 21.0547 24.1962 21.3421C24.1962 21.6294 23.9643 21.8614 23.6769 21.8614H22.943C22.6556 21.8614 22.4237 21.6294 22.4237 21.3421C22.4237 21.0547 22.6556 20.8228 22.943 20.8228ZM25.7784 20.8228H26.5123C26.7997 20.8228 27.0316 21.0547 27.0316 21.3421C27.0316 21.6294 26.7997 21.8614 26.5123 21.8614H25.7784C25.491 21.8614 25.2591 21.6294 25.2591 21.3421C25.2591 21.0547 25.491 20.8228 25.7784 20.8228ZM22.943 23.305H23.6769C23.9643 23.305 24.1962 23.537 24.1962 23.8243C24.1962 24.1117 23.9643 24.3436 23.6769 24.3436H22.943C22.6556 24.3436 22.4237 24.1117 22.4237 23.8243C22.4237 23.537 22.6556 23.305 22.943 23.305ZM25.7784 23.305H26.5123C26.7997 23.305 27.0316 23.537 27.0316 23.8243C27.0316 24.1117 26.7997 24.3436 26.5123 24.3436H25.7784C25.491 24.3436 25.2591 24.1117 25.2591 23.8243C25.2591 23.537 25.491 23.305 25.7784 23.305ZM22.943 25.7873H23.6769C23.9643 25.7873 24.1962 26.0192 24.1962 26.3066C24.1962 26.5939 23.9643 26.8259 23.6769 26.8259H22.943C22.6556 26.8259 22.4237 26.5939 22.4237 26.3066C22.4237 26.0192 22.6556 25.7873 22.943 25.7873ZM25.7784 25.7873H26.5123C26.7997 25.7873 27.0316 26.0192 27.0316 26.3066C27.0316 26.5939 26.7997 26.8259 26.5123 26.8259H25.7784C25.491 26.8259 25.2591 26.5939 25.2591 26.3066C25.2591 26.0192 25.491 25.7873 25.7784 25.7873ZM22.943 28.2696H23.6769C23.9643 28.2696 24.1962 28.5015 24.1962 28.7889C24.1962 29.0762 23.9643 29.3082 23.6769 29.3082H22.943C22.6556 29.3082 22.4237 29.0762 22.4237 28.7889C22.4237 28.5015 22.6556 28.2696 22.943 28.2696ZM26.5158 28.2696C26.5677 28.2696 26.6197 28.2799 26.6681 28.2938V28.2973C26.8793 28.363 27.0351 28.5569 27.0351 28.7889C27.0351 29.0243 26.8793 29.2182 26.6681 29.2839C26.6197 29.2978 26.5677 29.3082 26.5158 29.3082H25.7818C25.4945 29.3082 25.2625 29.0762 25.2625 28.7889C25.2625 28.5015 25.4945 28.2696 25.7818 28.2696H26.5158ZM22.943 30.7518H23.6769C23.9643 30.7518 24.1962 30.9838 24.1962 31.2711C24.1962 31.5585 23.9643 31.7904 23.6769 31.7904H22.943C22.6556 31.7904 22.4237 31.5585 22.4237 31.2711C22.4237 30.9838 22.6556 30.7518 22.943 30.7518ZM26.5158 30.7518C26.5677 30.7518 26.6197 30.7622 26.6681 30.7761V30.783C26.7685 30.8141 26.8551 30.873 26.9208 30.9526C26.9901 31.0392 27.0351 31.1534 27.0351 31.2746C27.0351 31.465 26.9312 31.6312 26.7754 31.7212L26.7754 31.7212C26.7408 31.7385 26.7062 31.7558 26.6681 31.7662C26.6197 31.7801 26.5677 31.7904 26.5158 31.7904H25.7818C25.4945 31.7904 25.2625 31.5585 25.2625 31.2711C25.2625 30.9838 25.4945 30.7518 25.7818 30.7518H26.5158ZM36.019 30.5476C36.019 30.2602 36.251 30.0283 36.5383 30.0283C36.8257 30.0283 37.0576 30.2602 37.0576 30.5476V31.2815C37.0576 31.5689 36.8257 31.8008 36.5383 31.8008C36.251 31.8008 36.019 31.5689 36.019 31.2815V30.5476ZM33.1836 30.5476C33.1836 30.2602 33.4156 30.0283 33.7029 30.0283C33.9903 30.0283 34.2222 30.2602 34.2222 30.5476V31.2815C34.2222 31.5689 33.9903 31.8008 33.7029 31.8008C33.4156 31.8008 33.1836 31.5689 33.1836 31.2815V30.5476ZM40.9836 34.1931C41.2709 34.1931 41.5029 33.9611 41.5029 33.6738L41.4925 33.6807C41.4925 33.3934 41.2605 33.1614 40.9732 33.1614H39.4395V17.9839C39.4395 17.7623 39.2976 17.565 39.0864 17.4923L28.6276 13.9472C28.4684 13.8918 28.2918 13.9195 28.1568 14.0164C28.0183 14.1134 27.9387 14.2726 27.9387 14.4388V18.7836H20.9731C20.6857 18.7836 20.4538 19.0156 20.4538 19.3029V33.1545H19.3736C19.0863 33.1545 18.8543 33.3864 18.8543 33.6738C18.8543 33.9611 19.0863 34.1931 19.3736 34.1931H26.1488C26.1419 34.2312 26.1384 34.2658 26.1384 34.3039V34.6501C26.1384 34.9374 26.3704 35.1694 26.6577 35.1694C26.9451 35.1694 27.177 34.9374 27.177 34.6501V34.3039C27.177 34.2658 27.1736 34.2277 27.1667 34.1931H29.0708C29.0119 34.2762 28.9773 34.38 28.9773 34.4908V34.837C28.9773 35.1244 29.2092 35.3563 29.4966 35.3563C29.7839 35.3563 30.0159 35.1244 30.0159 34.837V34.4908C30.0159 34.38 29.9813 34.2762 29.9224 34.1931H31.8265C31.8196 34.2312 31.8161 34.2658 31.8161 34.3039V34.6501C31.8161 34.9374 32.0481 35.1694 32.3354 35.1694C32.6228 35.1694 32.8548 34.9374 32.8548 34.6501V34.3039C32.8548 34.2658 32.8513 34.2277 32.8444 34.1931H40.9836ZM27.9525 33.1545H26.6681V33.1614H21.5062V19.8222H27.9525V33.1545ZM38.4113 18.3578V33.1545V33.1614H28.9911V15.1623L38.4113 18.3578Z" fill="white"></path><defs><linearGradient id="paint0_linear_165_6185" x1="-4.27286" y1="26.484" x2="26.4709" y2="53.8736" gradientUnits="userSpaceOnUse"><stop stop-color="#020C6A"></stop><stop offset="0.0001" stop-color="#0463EF"></stop><stop offset="0.81096" stop-color="#06BF66"></stop><stop offset="1" stop-color="#68EDA4"></stop></linearGradient><linearGradient id="paint1_linear_165_6185" x1="-17.4101" y1="71.3165" x2="1.36811" y2="-14.5358" gradientUnits="userSpaceOnUse"><stop stop-color="#020C6A"></stop><stop offset="0.49" stop-color="#0463EF"></stop><stop offset="1" stop-color="#5EFCA1"></stop></linearGradient><linearGradient id="paint2_linear_165_6185" x1="2.04072" y1="-15.1473" x2="-9.62758" y2="4.57024" gradientUnits="userSpaceOnUse"><stop offset="0.0104167" stop-color="#020C6A"></stop><stop offset="0.572917" stop-color="#06BF66"></stop><stop offset="1" stop-color="#62EAA0"></stop></linearGradient><linearGradient id="paint3_linear_165_6185" x1="-30.2212" y1="-48.9388" x2="34.7402" y2="10.2495" gradientUnits="userSpaceOnUse"><stop offset="0.177083" stop-color="#020C6A"></stop><stop offset="0.822917" stop-color="#0463EF"></stop><stop offset="1" stop-color="#2C7BF6"></stop></linearGradient><linearGradient id="paint4_linear_165_6185" x1="-30.2212" y1="-48.9388" x2="34.7402" y2="10.2495" gradientUnits="userSpaceOnUse"><stop offset="0.177083" stop-color="#020C6A"></stop><stop offset="0.822917" stop-color="#0463EF"></stop><stop offset="1" stop-color="#2C7BF6"></stop></linearGradient><linearGradient id="paint5_linear_165_6185" x1="50.62" y1="12.8594" x2="50.62" y2="35.789" gradientUnits="userSpaceOnUse"><stop offset="0.604725" stop-color="#06BF66"></stop><stop offset="1" stop-color="#7BF5AF"></stop></linearGradient><linearGradient id="paint6_linear_165_6185" x1="80.3305" y1="0.0958639" x2="-3.40874" y2="26.7595" gradientUnits="userSpaceOnUse"><stop offset="0.215949" stop-color="#0347C4"></stop><stop offset="0.49" stop-color="#0057E7"></stop><stop offset="0.762166" stop-color="#3784F9"></stop></linearGradient><linearGradient id="paint7_linear_165_6185" x1="28.5357" y1="21.8779" x2="28.5357" y2="37.4206" gradientUnits="userSpaceOnUse"><stop stop-color="#06BF66"></stop><stop offset="1" stop-color="#7BF5AF"></stop></linearGradient><linearGradient id="paint8_linear_165_6185" x1="26.5918" y1="21.8779" x2="41.7706" y2="27.0137" gradientUnits="userSpaceOnUse"><stop stop-color="#0057E7"></stop><stop offset="1" stop-color="#0057E7" stop-opacity="0.85"></stop></linearGradient><clipPath id="clip0_165_6185"><rect width="15.5427" height="15.5427" fill="white" transform="translate(22.707 21.8779)"></rect></clipPath></defs></svg>