<svg xmlns="http://www.w3.org/2000/svg" width="65" height="65" viewBox="0 0 65 65" fill="none"><rect x="0.0698242" y="0.0947266" width="64" height="64" rx="10" fill="#0057E7"></rect><path d="M43.5941 24.1801L36.3506 16.9365C35.8074 16.3933 35.087 16.0947 34.3206 16.0947H26.7949C22.497 16.0947 19 19.5918 19 23.8896V40.2999C19 44.5977 22.497 48.0947 26.7949 48.0947H36.641C40.9389 48.0947 44.4359 44.5977 44.4359 40.2999V26.2099C44.4359 25.4436 44.1372 24.7216 43.5941 24.1801ZM36.2308 20.2958L40.2332 24.2983H39.1026C37.519 24.2983 36.2308 23.01 36.2308 21.4265V20.2958ZM36.641 45.6332H26.7949C23.8542 45.6332 21.4615 43.2406 21.4615 40.2999V23.8896C21.4615 20.9489 23.8542 18.5563 26.7949 18.5563H33.7692V21.4281C33.7692 24.3688 36.1618 26.7614 39.1026 26.7614H41.9744V40.2999C41.9744 43.2406 39.5817 45.6332 36.641 45.6332Z" fill="white"></path></svg>