<svg xmlns="http://www.w3.org/2000/svg" width="68" height="68" viewBox="0 0 68 68" fill="none"><rect width="68" height="68" rx="20" fill="#0057E7"></rect><g opacity="0.84992" clip-path="url(#clip0_248_13108)"><path opacity="0.4" d="M43.7179 13H24.3711C17.3207 13 13.3262 16.9946 13.3262 24.0448V43.3733C13.3262 50.4237 17.3207 54.4183 24.3711 54.4183H43.7179C50.7683 54.4183 54.7444 50.4237 54.7444 43.3733V24.0448C54.7444 16.9946 50.7683 13 43.7179 13Z" fill="white"></path></g><path d="M34 26.2199C31.2018 26.2199 28.926 28.4958 28.926 31.2939C28.926 34.0921 31.2018 36.368 34 36.368C36.7982 36.368 39.074 34.0921 39.074 31.2939C39.074 28.4958 36.7982 26.2199 34 26.2199ZM34 34.3384C32.3208 34.3384 30.9556 32.9731 30.9556 31.2939C30.9556 29.6148 32.3208 28.2495 34 28.2495C35.6792 28.2495 37.0444 29.6148 37.0444 31.2939C37.0444 32.9731 35.6792 34.3384 34 34.3384ZM33.9946 20.8076C28.0194 20.8076 23.5137 25.3161 23.5137 31.2939C23.5137 39.6938 29.9218 44.9275 32.6753 46.7866C33.0758 47.0572 33.5345 47.1926 33.9946 47.1926C34.4519 47.1926 34.9106 47.0573 35.3111 46.7881C38.07 44.9249 44.4863 39.6844 44.4863 31.2926C44.4863 25.3147 39.9765 20.8076 33.9946 20.8076ZM34.1759 45.1061C34.0636 45.1819 33.9242 45.1819 33.8119 45.1061C31.8716 43.7964 25.5433 38.9293 25.5433 31.2939C25.5433 26.4729 29.1763 22.8372 33.9946 22.8372C38.8183 22.8372 42.4567 26.4729 42.4567 31.2939C42.4567 38.7129 36.6656 43.4256 34.1759 45.1061Z" fill="white"></path><defs><clipPath id="clip0_248_13108"><rect width="42" height="42" fill="white" transform="translate(13 13)"></rect></clipPath></defs></svg>