<svg xmlns="http://www.w3.org/2000/svg" width="65" height="65" viewBox="0 0 65 65" fill="none"><rect x="0.0654297" y="0.0947266" width="64" height="64" rx="10" fill="#0057E7"></rect><path d="M45.8074 18.4334C44.4765 17.6194 42.8485 17.557 41.4585 18.2709L37.83 20.1336C37.2638 20.4257 36.5877 20.4257 36.0199 20.1336L29.1092 16.5853C28.479 16.262 27.7881 16.0996 27.0972 16.0979C27.0906 16.0979 27.084 16.0947 27.0775 16.0947C27.0709 16.0947 27.0644 16.0979 27.0578 16.0979C26.3669 16.1012 25.6776 16.262 25.0458 16.5853L19.3889 19.4901C17.2981 20.5634 16 22.7165 16 25.106V41.8076C16 43.4405 16.8206 44.9159 18.1942 45.7545C19.5267 46.5701 21.1547 46.6308 22.5431 45.9169L26.1716 44.0543C26.7378 43.7621 27.4139 43.7621 27.9817 44.0543L34.8924 47.6023C35.5193 47.9256 36.207 48.0848 36.8946 48.0881C36.9044 48.0881 36.9126 48.0947 36.9225 48.0947C36.9323 48.0947 36.9405 48.0898 36.9504 48.0881C37.638 48.0832 38.3256 47.924 38.9525 47.6023L44.6095 44.6975C46.7002 43.6242 47.9983 41.4711 47.9983 39.0817V22.3801C48.0016 20.7488 47.181 19.272 45.8074 18.4334ZM21.4189 43.7293C20.7871 44.0526 20.0814 44.0265 19.4775 43.6572C18.8407 43.2699 18.4617 42.579 18.4617 41.811V25.1094C18.4617 23.6455 19.2478 22.3326 20.5147 21.6827L25.8466 18.9454V41.573C25.5742 41.6517 25.3034 41.7371 25.0474 41.8701L21.4189 43.7293ZM29.1092 41.8666C28.8532 41.7354 28.5807 41.6483 28.3083 41.5696V18.942L34.8924 22.3228C35.1484 22.4541 35.4209 22.5409 35.6933 22.6197V45.2474L29.1092 41.8666ZM45.5399 39.0835C45.5399 40.5473 44.7538 41.86 43.4869 42.5099L38.155 45.2474V22.6197C38.4274 22.5409 38.6982 22.4557 38.9542 22.3228L42.581 20.4601C43.2112 20.1368 43.9185 20.163 44.5225 20.5322C45.1592 20.9195 45.5383 21.6105 45.5383 22.3785V39.0835H45.5399Z" fill="white"></path></svg>