<svg xmlns="http://www.w3.org/2000/svg" width="104" height="104" viewBox="0 0 104 104" fill="none"><path d="M41.7833 102.803H41.9484C45.7119 103.522 49.5438 103.82 53.3732 103.691C54.1369 103.691 54.9109 103.629 55.6746 103.567L55.1586 102.669L53.2906 99.4283L37.2113 71.563C36.6271 70.5524 35.7259 69.7627 34.6473 69.3163C33.5688 68.8699 32.3731 68.7917 31.2455 69.0939C30.118 69.396 29.1217 70.0617 28.4109 70.9876C27.7001 71.9135 27.3145 73.0481 27.314 74.2154V82.4717C27.4275 92.2865 32.1955 100.822 41.7626 102.731L41.7833 102.803Z" fill="url(#paint0_linear_165_6225)"></path><path d="M27.3124 82.544V45.6173C27.4184 43.2286 26.8801 40.8554 25.7539 38.7462C24.6278 36.637 22.9552 34.8694 20.9114 33.6286C18.8675 32.3877 16.5277 31.7192 14.1368 31.6932C11.7459 31.6671 9.39203 32.2844 7.32164 33.4804C5.70578 34.411 4.30378 35.6711 3.20672 37.1789C2.10967 38.6866 1.34211 40.4084 0.953909 42.2322C0.953909 42.4386 0.871345 42.645 0.840383 42.8514C-1.13073 53.6452 0.386447 64.7862 5.17204 74.6598C9.95763 84.5335 17.763 92.6267 27.4569 97.7667C31.9984 100.156 36.8668 101.863 41.9056 102.834C32.2353 100.966 27.4259 92.4 27.3124 82.544Z" fill="url(#paint1_linear_165_6225)"></path><path d="M12.6302 18.3288L12.5167 18.4423C10.0167 21.3467 7.84326 24.5169 6.03547 27.8959C5.67425 28.577 5.33367 29.2582 5.00342 29.96H41.9301C43.0974 29.9594 44.2319 29.5739 45.1578 28.8631C46.0838 28.1523 46.7494 27.1559 47.0515 26.0284C47.3537 24.9009 47.2755 23.7052 46.8291 22.6266C46.3827 21.548 45.593 20.6468 44.5824 20.0626L37.3581 15.9344C28.8024 11.1251 19.0289 10.9806 12.589 18.3391L12.6302 18.3288Z" fill="url(#paint2_linear_165_6225)"></path><path d="M37.4051 15.9253L69.3985 34.3886C72.2181 36.1644 75.6004 36.8202 78.8793 36.2268C82.1582 35.6333 85.0961 33.8337 87.1144 31.1824C89.1327 28.531 90.0851 25.22 89.7841 21.9014C89.4832 18.5829 87.9505 15.4973 85.4881 13.2523L85.0134 12.8395C76.6544 5.73125 66.2471 1.47262 55.3029 0.682013C44.3588 -0.108597 33.4475 2.60998 24.1536 8.44296C19.8082 11.1773 15.8921 14.5404 12.5327 18.4229C18.983 10.9715 28.8081 11.0953 37.4051 15.9253Z" fill="url(#paint3_linear_165_6225)"></path><path d="M37.4051 15.9253L69.3985 34.3886C72.2181 36.1644 75.6004 36.8202 78.8793 36.2268C82.1582 35.6333 85.0961 33.8337 87.1144 31.1824C89.1327 28.531 90.0851 25.22 89.7841 21.9014C89.4832 18.5829 87.9505 15.4973 85.4881 13.2523L85.0134 12.8395C76.6544 5.73125 66.2471 1.47262 55.3029 0.682013C44.3588 -0.108597 33.4475 2.60998 24.1536 8.44296C19.8082 11.1773 15.8921 14.5404 12.5327 18.4229C18.983 10.9715 28.8081 11.0953 37.4051 15.9253Z" fill="url(#paint4_linear_165_6225)"></path><path d="M100.361 35.3076L100.31 35.1527C99.0491 31.5402 97.3911 28.0788 95.3663 24.8323C94.9638 24.1821 94.5407 23.5422 94.1072 22.9023L93.5912 23.8105L91.7232 27.0409L75.6439 54.9061C75.0671 55.9146 74.838 57.0849 74.992 58.2364C75.146 59.3879 75.6745 60.4568 76.496 61.2783C77.3175 62.0998 78.3864 62.6283 79.538 62.7823C80.6895 62.9363 81.8597 62.7073 82.8682 62.1305L90.0925 58.0023C98.5347 52.9968 103.509 44.5857 100.413 35.2972L100.361 35.3076Z" fill="url(#paint5_linear_165_6225)"></path><path d="M90.052 57.9732L58.0585 76.4365C55.7967 77.6001 53.9188 79.3919 52.6506 81.5967C51.2965 83.9331 50.6837 86.6255 50.8932 89.3177C51.1028 92.01 52.1249 94.5752 53.8242 96.6738C55.5235 98.7725 57.8199 100.306 60.4097 101.071C62.9995 101.836 65.7605 101.796 68.3274 100.958L68.926 100.752C79.2682 97.0705 88.1669 90.1871 94.3289 81.1019C100.491 72.0167 103.595 61.2031 103.19 50.2328C102.992 45.1053 102.039 40.035 100.362 35.1855C103.582 44.474 98.5664 52.9471 90.0417 57.9732H90.052Z" fill="url(#paint6_linear_165_6225)"></path><ellipse cx="51.5796" cy="51.7942" rx="38.2686" ry="37.9358" fill="white"></ellipse><rect x="4.6958" y="5.57812" width="93" height="93" rx="46.5" fill="#0057E7"></rect><path d="M50.8229 60.6998C54.571 60.6998 57.6092 57.6564 57.6092 53.9016C57.6092 50.1469 54.5712 47.1035 50.8229 47.1035C47.075 47.1035 44.0366 50.1469 44.0366 53.9016C44.0366 57.6564 47.0752 60.6998 50.8229 60.6998ZM44.8876 53.9016C44.8876 50.618 47.545 47.956 50.8229 47.956C54.1009 47.956 56.7582 50.618 56.7582 53.9016C56.7582 57.1853 54.1009 59.8473 50.8229 59.8473C47.545 59.8474 44.8876 57.1853 44.8876 53.9016Z" fill="white"></path><ellipse cx="50.822" cy="53.8855" rx="6.17214" ry="6.39334" fill="white"></ellipse><path d="M50.1514 57.3777V57.775C50.1514 58.1398 50.4467 58.4356 50.8108 58.4356C51.175 58.4356 51.4703 58.1398 51.4703 57.775V57.3023C52.4497 57.032 53.0889 56.2511 53.0889 55.2864C53.0889 53.9959 52.1285 53.438 51.2931 53.0968C50.3841 52.7204 50.2305 52.527 50.2305 52.2381C50.2305 52.1102 50.2845 51.6927 50.9804 51.6927C51.269 51.6927 51.5053 51.7433 51.6901 51.8057C51.7177 51.815 51.7525 51.8294 51.7923 51.8473C52.1553 52.0116 52.5817 51.8343 52.7228 51.4611C52.8508 51.1232 52.6975 50.7436 52.3715 50.5889C52.258 50.5351 52.1538 50.4895 52.0886 50.4696C51.9123 50.4159 51.7269 50.3779 51.5314 50.355V49.9901C51.5314 49.6283 51.2386 49.335 50.8774 49.335C50.5162 49.335 50.2234 49.6283 50.2234 49.9901V50.437C49.2745 50.6957 48.6764 51.4266 48.6764 52.3612C48.6764 53.5439 49.6389 54.0806 50.5765 54.4489C51.4096 54.7875 51.5245 55.0859 51.5245 55.358C51.5245 55.7581 51.1697 56.0268 50.6414 56.0268C50.3575 56.0268 50.0593 55.9686 49.7871 55.8645C49.764 55.8556 49.7301 55.8391 49.6894 55.8175C49.3154 55.6199 48.8535 55.7981 48.711 56.1968C48.596 56.5186 48.7322 56.8758 49.0313 57.0405C49.1591 57.111 49.2832 57.1735 49.3663 57.2022C49.6115 57.2866 49.8806 57.3474 50.1514 57.3777Z" fill="#0057E7"></path><path d="M67.3794 41.6258L57.7629 32.0091C57.0417 31.288 56.0853 30.8916 55.0679 30.8916H45.0766C39.3707 30.8916 34.728 35.5343 34.728 41.2402V63.0267C34.728 68.7326 39.3707 73.3753 45.0766 73.3753H58.1485C63.8544 73.3753 68.4971 68.7326 68.4971 63.0267V44.3207C68.4971 43.3032 68.1006 42.3448 67.3794 41.6258ZM57.6038 36.4691L62.9176 41.7827H61.4165C59.3141 41.7827 57.6038 40.0725 57.6038 37.9701V36.4691ZM58.1485 70.1073H45.0766C41.1725 70.1073 37.996 66.9308 37.996 63.0267V41.2402C37.996 37.336 41.1725 34.1596 45.0766 34.1596H54.3359V37.9722C54.3359 41.8763 57.5123 45.0528 61.4165 45.0528H65.2291V63.0267C65.2291 66.9308 62.0526 70.1073 58.1485 70.1073Z" fill="white"></path><defs><linearGradient id="paint0_linear_165_6225" x1="-7.4391" y1="46.6279" x2="46.0942" y2="94.3207" gradientUnits="userSpaceOnUse"><stop stop-color="#020C6A"></stop><stop offset="0.0001" stop-color="#0463EF"></stop><stop offset="0.81096" stop-color="#06BF66"></stop><stop offset="1" stop-color="#68EDA4"></stop></linearGradient><linearGradient id="paint1_linear_165_6225" x1="-30.3158" y1="124.693" x2="2.38226" y2="-24.7998" gradientUnits="userSpaceOnUse"><stop stop-color="#020C6A"></stop><stop offset="0.49" stop-color="#0463EF"></stop><stop offset="1" stop-color="#5EFCA1"></stop></linearGradient><linearGradient id="paint2_linear_165_6225" x1="3.55071" y1="-25.8637" x2="-16.767" y2="8.46994" gradientUnits="userSpaceOnUse"><stop offset="0.0104167" stop-color="#020C6A"></stop><stop offset="0.572917" stop-color="#06BF66"></stop><stop offset="1" stop-color="#62EAA0"></stop></linearGradient><linearGradient id="paint3_linear_165_6225" x1="-52.6231" y1="-84.7054" x2="60.4926" y2="18.3576" gradientUnits="userSpaceOnUse"><stop offset="0.177083" stop-color="#020C6A"></stop><stop offset="0.822917" stop-color="#0463EF"></stop><stop offset="1" stop-color="#2C7BF6"></stop></linearGradient><linearGradient id="paint4_linear_165_6225" x1="-52.6231" y1="-84.7054" x2="60.4926" y2="18.3576" gradientUnits="userSpaceOnUse"><stop offset="0.177083" stop-color="#020C6A"></stop><stop offset="0.822917" stop-color="#0463EF"></stop><stop offset="1" stop-color="#2C7BF6"></stop></linearGradient><linearGradient id="paint5_linear_165_6225" x1="88.1423" y1="22.9023" x2="88.1423" y2="62.829" gradientUnits="userSpaceOnUse"><stop offset="0.604725" stop-color="#06BF66"></stop><stop offset="1" stop-color="#7BF5AF"></stop></linearGradient><linearGradient id="paint6_linear_165_6225" x1="139.876" y1="0.678317" x2="-5.9366" y2="47.107" gradientUnits="userSpaceOnUse"><stop offset="0.215949" stop-color="#0347C4"></stop><stop offset="0.49" stop-color="#0057E7"></stop><stop offset="0.762166" stop-color="#3784F9"></stop></linearGradient></defs></svg>