<svg xmlns="http://www.w3.org/2000/svg" width="68" height="68" viewBox="0 0 68 68" fill="none"><rect width="68" height="68" rx="20" fill="#0057E7"></rect><g clip-path="url(#clip0_261_1912)"><path opacity="0.4" d="M43.7179 13H24.3711C17.3207 13 13.3262 16.9946 13.3262 24.0448V43.3733C13.3262 50.4237 17.3207 54.4183 24.3711 54.4183H43.7179C50.7683 54.4183 54.7444 50.4237 54.7444 43.3733V24.0448C54.7444 16.9946 50.7683 13 43.7179 13Z" fill="white"></path><path d="M33.9912 28.2607C33.0525 28.2607 32.2793 29.0338 32.2793 29.991V44.2205C32.2793 45.1594 33.0525 45.9325 33.9912 45.9325C34.9484 45.9325 35.7216 45.1594 35.7216 44.2205V29.991C35.7216 29.0338 34.9484 28.2607 33.9912 28.2607Z" fill="white"></path><path d="M43.6553 21.4678C42.7165 21.4678 41.9434 22.2409 41.9434 23.1982V44.2201C41.9434 45.159 42.7165 45.9322 43.6553 45.9322C44.6125 45.9322 45.3856 45.159 45.3856 44.2201V23.1982C45.3856 22.2409 44.6125 21.4678 43.6553 21.4678Z" fill="white"></path><path d="M24.3456 35.7705C23.3884 35.7705 22.6152 36.5437 22.6152 37.5009V44.2198C22.6152 45.1587 23.3884 45.9318 24.3272 45.9318C25.2844 45.9318 26.0576 45.1587 26.0576 44.2198V37.5009C26.0576 36.5437 25.2844 35.7705 24.3456 35.7705Z" fill="white"></path></g><defs><clipPath id="clip0_261_1912"><rect width="42" height="42" fill="white" transform="translate(13 13)"></rect></clipPath></defs></svg>