<svg xmlns="http://www.w3.org/2000/svg" width="69" height="68" viewBox="0 0 69 68" fill="none"><rect x="0.5" width="68" height="68" rx="20" fill="#0057E7"></rect><g opacity="0.84992" clip-path="url(#clip0_261_1895)"><path opacity="0.4" d="M43.7179 13H24.3711C17.3207 13 13.3262 16.9946 13.3262 24.0448V43.3733C13.3262 50.4237 17.3207 54.4183 24.3711 54.4183H43.7179C50.7683 54.4183 54.7444 50.4237 54.7444 43.3733V24.0448C54.7444 16.9946 50.7683 13 43.7179 13Z" fill="white"></path></g><path d="M32.2536 42.3822V43.3358C32.2536 44.2112 32.9623 44.9211 33.8362 44.9211C34.7101 44.9211 35.4187 44.2112 35.4187 43.3358V42.2013C37.7695 41.5526 39.3035 39.6785 39.3035 37.3632C39.3035 34.2661 36.9985 32.9273 34.9936 32.1084C32.812 31.2049 32.4433 30.7407 32.4433 30.0474C32.4433 29.7405 32.5731 28.7387 34.2432 28.7387C34.9356 28.7387 35.5027 28.8599 35.9464 29.0096C36.0126 29.0322 36.0962 29.0665 36.1917 29.1096C37.0628 29.5038 38.0861 29.0784 38.4249 28.1828C38.7321 27.3718 38.3642 26.4608 37.5818 26.0895C37.3093 25.9603 37.0592 25.8509 36.9027 25.8031C36.4795 25.6743 36.0347 25.5831 35.5654 25.5281V24.6523C35.5654 23.784 34.8627 23.0801 33.9959 23.0801C33.1291 23.0801 32.4264 23.784 32.4264 24.6523V25.7249C30.149 26.3459 28.7135 28.0999 28.7135 30.3429C28.7135 33.1813 31.0236 34.4695 33.2738 35.3532C35.2732 36.1658 35.5489 36.882 35.5489 37.535C35.5489 38.4954 34.6974 39.1401 33.4296 39.1401C32.7482 39.1401 32.0324 39.0006 31.3793 38.7506C31.3237 38.7292 31.2425 38.6897 31.1447 38.638C30.2472 38.1635 29.1386 38.5914 28.7967 39.5482C28.5207 40.3205 28.8476 41.1777 29.5653 41.5732C29.8721 41.7422 30.1699 41.8923 30.3694 41.9611C30.9578 42.1637 31.6037 42.3095 32.2536 42.3822Z" fill="white"></path><defs><clipPath id="clip0_261_1895"><rect width="42" height="42" fill="white" transform="translate(13 13)"></rect></clipPath></defs></svg>