<svg xmlns="http://www.w3.org/2000/svg" width="104" height="104" viewBox="0 0 104 104" fill="none"><path d="M42.0875 102.803H42.2526C46.0161 103.522 49.848 103.82 53.6774 103.691C54.4411 103.691 55.2151 103.629 55.9788 103.567L55.4628 102.669L53.5948 99.4283L37.5155 71.563C36.9313 70.5524 36.0301 69.7627 34.9515 69.3163C33.873 68.8699 32.6773 68.7917 31.5497 69.0939C30.4222 69.396 29.4259 70.0617 28.7151 70.9876C28.0043 71.9135 27.6187 73.0481 27.6182 74.2154V82.4717C27.7317 92.2865 32.4997 100.822 42.0668 102.731L42.0875 102.803Z" fill="url(#paint0_linear_648_17722)"></path><path d="M27.6166 82.544V45.6173C27.7226 43.2286 27.1843 40.8554 26.0581 38.7462C24.932 36.637 23.2594 34.8694 21.2156 33.6286C19.1717 32.3877 16.8319 31.7192 14.441 31.6932C12.0501 31.6671 9.69623 32.2844 7.62584 33.4804C6.00998 34.411 4.60798 35.6711 3.51092 37.1789C2.41387 38.6866 1.64631 40.4084 1.25811 42.2322C1.25811 42.4386 1.17554 42.645 1.14458 42.8514C-0.826532 53.6452 0.690647 64.7862 5.47624 74.6598C10.2618 84.5335 18.0672 92.6267 27.7611 97.7667C32.3026 100.156 37.171 101.863 42.2098 102.834C32.5395 100.966 27.7301 92.4 27.6166 82.544Z" fill="url(#paint1_linear_648_17722)"></path><path d="M12.9344 18.3288L12.8209 18.4423C10.3209 21.3467 8.14746 24.5169 6.33966 27.8959C5.97845 28.577 5.63787 29.2582 5.30762 29.96H42.2343C43.4016 29.9594 44.5361 29.5739 45.462 28.8631C46.388 28.1523 47.0536 27.1559 47.3557 26.0284C47.6579 24.9009 47.5797 23.7052 47.1333 22.6266C46.6869 21.548 45.8972 20.6468 44.8866 20.0626L37.6623 15.9344C29.1066 11.1251 19.3331 10.9806 12.8932 18.3391L12.9344 18.3288Z" fill="url(#paint2_linear_648_17722)"></path><path d="M37.7093 15.9253L69.7027 34.3886C72.5223 36.1644 75.9046 36.8202 79.1835 36.2268C82.4624 35.6333 85.4003 33.8337 87.4186 31.1824C89.4369 28.531 90.3893 25.22 90.0883 21.9014C89.7874 18.5829 88.2547 15.4973 85.7923 13.2523L85.3176 12.8395C76.9586 5.73125 66.5513 1.47262 55.6071 0.682013C44.663 -0.108597 33.7517 2.60998 24.4578 8.44296C20.1124 11.1773 16.1963 14.5404 12.8369 18.4229C19.2872 10.9715 29.1123 11.0953 37.7093 15.9253Z" fill="url(#paint3_linear_648_17722)"></path><path d="M37.7093 15.9253L69.7027 34.3886C72.5223 36.1644 75.9046 36.8202 79.1835 36.2268C82.4624 35.6333 85.4003 33.8337 87.4186 31.1824C89.4369 28.531 90.3893 25.22 90.0883 21.9014C89.7874 18.5829 88.2547 15.4973 85.7923 13.2523L85.3176 12.8395C76.9586 5.73125 66.5513 1.47262 55.6071 0.682013C44.663 -0.108597 33.7517 2.60998 24.4578 8.44296C20.1124 11.1773 16.1963 14.5404 12.8369 18.4229C19.2872 10.9715 29.1123 11.0953 37.7093 15.9253Z" fill="url(#paint4_linear_648_17722)"></path><path d="M100.666 35.3076L100.614 35.1527C99.3533 31.5402 97.6953 28.0788 95.6705 24.8323C95.268 24.1821 94.8449 23.5422 94.4114 22.9023L93.8954 23.8105L92.0274 27.0409L75.9481 54.9061C75.3713 55.9146 75.1422 57.0849 75.2962 58.2364C75.4502 59.3879 75.9787 60.4568 76.8002 61.2783C77.6217 62.0998 78.6906 62.6283 79.8422 62.7823C80.9937 62.9363 82.1639 62.7073 83.1724 62.1305L90.3967 58.0023C98.8389 52.9968 103.813 44.5857 100.717 35.2972L100.666 35.3076Z" fill="url(#paint5_linear_648_17722)"></path><path d="M90.3562 57.9732L58.3627 76.4365C56.1009 77.6001 54.223 79.3919 52.9548 81.5967C51.6007 83.9331 50.9879 86.6255 51.1974 89.3177C51.407 92.01 52.4291 94.5752 54.1284 96.6738C55.8277 98.7725 58.1241 100.306 60.7139 101.071C63.3037 101.836 66.0647 101.796 68.6316 100.958L69.2302 100.752C79.5724 97.0705 88.4711 90.1871 94.6331 81.1019C100.795 72.0167 103.899 61.2031 103.494 50.2328C103.297 45.1053 102.344 40.035 100.666 35.1855C103.886 44.474 98.8706 52.9471 90.3459 57.9732H90.3562Z" fill="url(#paint6_linear_648_17722)"></path><g clip-path="url(#clip0_648_17722)"><path d="M53.3758 65.6716C57.1119 65.6716 60.1425 62.6422 60.1425 58.9049C60.1425 55.1676 57.1131 52.1383 53.3758 52.1383C49.6385 52.1383 46.6092 49.1089 46.6092 45.3717C46.6092 41.6344 49.6397 38.6074 53.3758 38.6074C45.9025 38.6074 39.8438 44.6661 39.8438 52.1395C39.8438 59.6129 45.9025 65.6716 53.3758 65.6716Z" fill="url(#paint7_linear_648_17722)"></path><path d="M53.376 38.6074C49.6399 38.6074 46.6094 41.6368 46.6094 45.3729C46.6094 49.1089 49.6387 52.1395 53.376 52.1395C57.1133 52.1395 60.1426 55.1688 60.1426 58.9061C60.1426 62.6434 57.1133 65.6728 53.376 65.6728C60.8494 65.6728 66.9081 59.6141 66.9081 52.1407C66.9081 44.6673 60.8494 38.6074 53.376 38.6074Z" fill="url(#paint8_linear_648_17722)"></path></g><ellipse cx="51.8838" cy="51.7942" rx="38.2686" ry="37.9358" fill="white"></ellipse><rect x="5" y="5.57812" width="93" height="93" rx="46.5" fill="#06BF66"></rect><path d="M37.9071 64.8166C38.3546 65.2642 38.9765 65.5422 39.6603 65.5422C40.3457 65.5422 40.966 65.2642 41.4135 64.8166C42.3737 63.8564 42.3769 62.2687 41.416 61.3077C40.9692 60.861 40.3489 60.5846 39.6603 60.5846C38.9749 60.5846 38.3546 60.8626 37.9071 61.3102C36.934 62.2727 36.9445 63.854 37.9071 64.8166ZM22.6647 57.0966C21.9134 57.0966 21.3035 56.4867 21.3035 55.7355C21.3035 54.9842 21.9134 54.3743 22.6647 54.3743H35.63C36.3812 54.3743 36.9911 54.9842 36.9911 55.7355C36.9911 56.4867 36.3812 57.0966 35.63 57.0966H22.6647ZM22.6639 46.1119C21.9126 46.1119 21.3027 45.5021 21.3027 44.7508C21.3027 43.9995 21.9126 43.3897 22.6639 43.3897H35.63C36.3812 43.3897 36.9911 43.9995 36.9911 44.7508C36.9911 45.5021 36.3812 46.1119 35.63 46.1119H22.6639ZM24.7031 51.6047C23.9519 51.6047 23.342 50.9948 23.342 50.2435C23.342 49.4923 23.9519 48.8824 24.7031 48.8824H37.6684C38.4197 48.8824 39.0296 49.4923 39.0296 50.2435C39.0296 50.9948 38.4197 51.6047 37.6684 51.6047H24.7031ZM72.7003 57.8623C74.1345 57.8623 75.4362 58.4457 76.3771 59.3866C77.0231 60.0326 77.5004 60.8481 77.7366 61.7609H79.808V52.691L72.2214 45.106H64.9264V61.7609H67.6647C67.9009 60.8514 68.3782 60.0374 69.0234 59.3914L69.0307 59.3842C69.9724 58.4441 71.2708 57.8623 72.7003 57.8623ZM77.7045 64.4832C77.4594 65.3477 76.995 66.1223 76.3771 66.7402C75.4362 67.6811 74.1345 68.2645 72.7003 68.2645C71.2652 68.2645 69.9643 67.6811 69.0234 66.7402C68.4055 66.1223 67.9411 65.3477 67.6961 64.4832L44.6814 64.4221C44.4411 65.3116 43.9703 66.107 43.3371 66.7402C42.3962 67.6811 41.0954 68.2645 39.6603 68.2645C38.2261 68.2645 36.9244 67.6811 35.9835 66.7402C35.3656 66.1223 34.9012 65.3477 34.6561 64.4832H31.1914C30.4401 64.4832 29.8303 63.8733 29.8303 63.122V59.3673C29.8303 58.616 30.4401 58.0062 31.1914 58.0062C31.9427 58.0062 32.5525 58.616 32.5525 59.3673V61.7609H34.6248C34.861 60.8505 35.3391 60.0358 35.9859 59.389C36.9244 58.4457 38.2253 57.8623 39.6603 57.8623C41.0905 57.8623 42.3898 58.4457 43.3323 59.3866L43.3395 59.3938C43.9719 60.0278 44.4427 60.8216 44.6822 61.7103L62.2041 61.7625V38.7262H32.5525V41.0419C32.5525 41.7931 31.9427 42.403 31.1914 42.403C30.4401 42.403 29.8303 41.7931 29.8303 41.0419V37.365C29.8303 36.6138 30.4401 36.0039 31.1914 36.0039H63.5653C64.3165 36.0039 64.9264 36.6138 64.9264 37.365V42.3837H72.7838C73.1743 42.3837 73.5271 42.5484 73.7753 42.8128L82.1309 51.1668C82.3969 51.4319 82.5295 51.7806 82.5295 52.1286L82.5303 63.122C82.5303 63.8733 81.9204 64.4832 81.1691 64.4832H77.7045ZM74.4535 61.3102C74.0059 60.8626 73.384 60.5846 72.7003 60.5846C72.0117 60.5846 71.3913 60.861 70.947 61.3053C69.9788 62.2736 69.9804 63.85 70.947 64.8166C71.3946 65.2642 72.0149 65.5422 72.7003 65.5422C73.384 65.5422 74.0059 65.2642 74.4535 64.8166C75.4201 63.85 75.4217 62.2784 74.4535 61.3102Z" fill="white"></path><defs><linearGradient id="paint0_linear_648_17722" x1="-7.1349" y1="46.6279" x2="46.3984" y2="94.3207" gradientUnits="userSpaceOnUse"><stop stop-color="#020C6A"></stop><stop offset="0.0001" stop-color="#0463EF"></stop><stop offset="0.81096" stop-color="#06BF66"></stop><stop offset="1" stop-color="#68EDA4"></stop></linearGradient><linearGradient id="paint1_linear_648_17722" x1="-30.0116" y1="124.693" x2="2.68646" y2="-24.7998" gradientUnits="userSpaceOnUse"><stop stop-color="#020C6A"></stop><stop offset="0.49" stop-color="#0463EF"></stop><stop offset="1" stop-color="#5EFCA1"></stop></linearGradient><linearGradient id="paint2_linear_648_17722" x1="3.85491" y1="-25.8637" x2="-16.4628" y2="8.46994" gradientUnits="userSpaceOnUse"><stop offset="0.0104167" stop-color="#020C6A"></stop><stop offset="0.572917" stop-color="#06BF66"></stop><stop offset="1" stop-color="#62EAA0"></stop></linearGradient><linearGradient id="paint3_linear_648_17722" x1="-52.3189" y1="-84.7054" x2="60.7968" y2="18.3576" gradientUnits="userSpaceOnUse"><stop offset="0.177083" stop-color="#020C6A"></stop><stop offset="0.822917" stop-color="#0463EF"></stop><stop offset="1" stop-color="#2C7BF6"></stop></linearGradient><linearGradient id="paint4_linear_648_17722" x1="-52.3189" y1="-84.7054" x2="60.7968" y2="18.3576" gradientUnits="userSpaceOnUse"><stop offset="0.177083" stop-color="#020C6A"></stop><stop offset="0.822917" stop-color="#0463EF"></stop><stop offset="1" stop-color="#2C7BF6"></stop></linearGradient><linearGradient id="paint5_linear_648_17722" x1="88.4465" y1="22.9023" x2="88.4465" y2="62.829" gradientUnits="userSpaceOnUse"><stop offset="0.604725" stop-color="#06BF66"></stop><stop offset="1" stop-color="#7BF5AF"></stop></linearGradient><linearGradient id="paint6_linear_648_17722" x1="140.181" y1="0.678317" x2="-5.6324" y2="47.107" gradientUnits="userSpaceOnUse"><stop offset="0.215949" stop-color="#0347C4"></stop><stop offset="0.49" stop-color="#0057E7"></stop><stop offset="0.762166" stop-color="#3784F9"></stop></linearGradient><linearGradient id="paint7_linear_648_17722" x1="49.9931" y1="38.6074" x2="49.9931" y2="65.6716" gradientUnits="userSpaceOnUse"><stop stop-color="#06BF66"></stop><stop offset="1" stop-color="#7BF5AF"></stop></linearGradient><linearGradient id="paint8_linear_648_17722" x1="46.6094" y1="38.6074" x2="73.0399" y2="47.5502" gradientUnits="userSpaceOnUse"><stop stop-color="#0057E7"></stop><stop offset="1" stop-color="#0057E7" stop-opacity="0.85"></stop></linearGradient><clipPath id="clip0_648_17722"><rect width="27.0641" height="27.0641" fill="white" transform="translate(39.8438 38.6074)"></rect></clipPath></defs></svg>