<svg xmlns="http://www.w3.org/2000/svg" width="65" height="65" viewBox="0 0 65 65" fill="none"><rect x="0.0317383" y="0.0947266" width="64" height="64" rx="10" fill="#0057E7"></rect><path d="M47.9121 27.1733C47.9121 27.0403 47.8908 26.909 47.8481 26.7826L46.0627 21.4249C45.0009 18.238 42.029 16.0947 38.6682 16.0947H25.156C21.7952 16.0947 18.825 18.2363 17.7616 21.4249L15.9761 26.7826C15.9334 26.909 15.9121 27.0403 15.9121 27.1733C15.9138 28.7782 16.5455 30.2289 17.5531 31.3251V41.9409C17.5531 45.3345 20.3133 48.0947 23.707 48.0947H29.9051V41.9409C29.9051 40.8102 30.8257 39.8896 31.9564 39.8896C33.087 39.8896 34.0077 40.8102 34.0077 41.9409V48.0947H40.1172C43.5109 48.0947 46.2711 45.3345 46.2711 41.9409V31.3251C47.2787 30.2273 47.9105 28.7782 47.9121 27.1733ZM20.0967 22.2027C20.8237 20.0218 22.8569 18.5563 25.156 18.5563H38.6682C40.9673 18.5563 43.0005 20.0218 43.7275 22.2027L45.4457 27.3571C45.3488 29.3379 43.7702 30.864 41.7747 30.864C40.1123 30.864 38.4876 29.8071 37.9953 28.4056C37.823 27.9117 37.3571 27.5819 36.8336 27.5819H36.8286C36.3034 27.5835 35.8374 27.9182 35.6684 28.4138C35.1909 29.8103 33.5744 30.864 31.9088 30.864C30.2432 30.864 28.6267 29.8103 28.1492 28.4138C27.9802 27.9182 27.5142 27.5835 26.989 27.5819H26.9841C26.4623 27.5819 25.9946 27.9117 25.8223 28.4056C25.33 29.8071 23.7053 30.864 22.0446 30.864C20.0491 30.864 18.4705 29.3379 18.3736 27.3571L20.0967 22.2027ZM40.1172 45.6332H36.4692V41.9409C36.4692 39.4514 34.4442 37.4281 31.9564 37.4281C29.4686 37.4281 27.4436 39.4514 27.4436 41.9409V45.6332H23.707C21.6705 45.6332 20.0147 43.9774 20.0147 41.9409V32.9497C20.6547 33.1778 21.3324 33.3255 22.0495 33.3255C23.9433 33.3255 25.773 32.4754 26.9824 31.1478C28.1853 32.477 30.0118 33.3255 31.9121 33.3255C33.8124 33.3255 35.6389 32.4754 36.8418 31.1478C38.0512 32.477 39.8809 33.3255 41.7747 33.3255C42.4918 33.3255 43.1695 33.1778 43.8095 32.9497V41.9409C43.8095 43.9758 42.1538 45.6332 40.1172 45.6332Z" fill="white"></path></svg>