<svg xmlns="http://www.w3.org/2000/svg" width="104" height="104" viewBox="0 0 104 104" fill="none"><path d="M42.0875 102.255H42.2526C46.0161 102.974 49.848 103.272 53.6774 103.143C54.4411 103.143 55.2151 103.081 55.9788 103.019L55.4628 102.121L53.5948 98.8804L37.5155 71.0152C36.9313 70.0046 36.0301 69.2149 34.9515 68.7685C33.873 68.3221 32.6773 68.2439 31.5497 68.546C30.4222 68.8482 29.4259 69.5138 28.7151 70.4398C28.0043 71.3657 27.6187 72.5002 27.6182 73.6675V81.9239C27.7317 91.7387 32.4997 100.274 42.0668 102.183L42.0875 102.255Z" fill="url(#paint0_linear_165_6159)"></path><path d="M27.6166 81.9961V45.0694C27.7226 42.6808 27.1843 40.3076 26.0581 38.1984C24.932 36.0892 23.2594 34.3216 21.2156 33.0807C19.1717 31.8399 16.8319 31.1714 14.441 31.1453C12.0501 31.1193 9.69623 31.7366 7.62584 32.9326C6.00998 33.8631 4.60798 35.1232 3.51092 36.631C2.41387 38.1388 1.64631 39.8605 1.25811 41.6843C1.25811 41.8907 1.17554 42.0971 1.14458 42.3036C-0.826532 53.0973 0.690647 64.2383 5.47624 74.112C10.2618 83.9856 18.0672 92.0789 27.7611 97.2188C32.3026 99.6077 37.171 101.315 42.2098 102.286C32.5395 100.418 27.7301 91.8522 27.6166 81.9961Z" fill="url(#paint1_linear_165_6159)"></path><path d="M12.9344 17.7809L12.8209 17.8945C10.3209 20.7988 8.14746 23.969 6.33966 27.348C5.97845 28.0292 5.63787 28.7103 5.30762 29.4121H42.2343C43.4016 29.4116 44.5361 29.026 45.462 28.3152C46.388 27.6044 47.0536 26.608 47.3557 25.4805C47.6579 24.353 47.5797 23.1573 47.1333 22.0787C46.6869 21.0002 45.8972 20.099 44.8866 19.5148L37.6623 15.3866C29.1066 10.5772 19.3331 10.4328 12.8932 17.7913L12.9344 17.7809Z" fill="url(#paint2_linear_165_6159)"></path><path d="M37.7093 15.3775L69.7027 33.8408C72.5223 35.6166 75.9046 36.2724 79.1835 35.6789C82.4624 35.0855 85.4003 33.2859 87.4186 30.6345C89.4369 27.9831 90.3893 24.6721 90.0883 21.3536C89.7874 18.035 88.2547 14.9494 85.7923 12.7045L85.3176 12.2916C76.9586 5.1834 66.5513 0.924771 55.6071 0.134161C44.663 -0.656448 33.7517 2.06213 24.4578 7.89511C20.1124 10.6294 16.1963 13.9926 12.8369 17.875C19.2872 10.4236 29.1123 10.5475 37.7093 15.3775Z" fill="url(#paint3_linear_165_6159)"></path><path d="M37.7093 15.3775L69.7027 33.8408C72.5223 35.6166 75.9046 36.2724 79.1835 35.6789C82.4624 35.0855 85.4003 33.2859 87.4186 30.6345C89.4369 27.9831 90.3893 24.6721 90.0883 21.3536C89.7874 18.035 88.2547 14.9494 85.7923 12.7045L85.3176 12.2916C76.9586 5.1834 66.5513 0.924771 55.6071 0.134161C44.663 -0.656448 33.7517 2.06213 24.4578 7.89511C20.1124 10.6294 16.1963 13.9926 12.8369 17.875C19.2872 10.4236 29.1123 10.5475 37.7093 15.3775Z" fill="url(#paint4_linear_165_6159)"></path><path d="M100.666 34.7597L100.614 34.6049C99.3533 30.9923 97.6953 27.531 95.6705 24.2844C95.268 23.6342 94.8449 22.9944 94.4114 22.3545L93.8954 23.2627L92.0274 26.493L75.9481 54.3583C75.3713 55.3668 75.1422 56.537 75.2962 57.6885C75.4502 58.8401 75.9787 59.909 76.8002 60.7305C77.6217 61.552 78.6906 62.0805 79.8422 62.2345C80.9937 62.3885 82.1639 62.1594 83.1724 61.5826L90.3967 57.4544C98.8389 52.449 103.813 44.0378 100.717 34.7494L100.666 34.7597Z" fill="url(#paint5_linear_165_6159)"></path><path d="M90.3562 57.4253L58.3627 75.8886C56.1009 77.0522 54.223 78.844 52.9548 81.0489C51.6007 83.3852 50.9879 86.0776 51.1974 88.7699C51.407 91.4621 52.4291 94.0273 54.1284 96.126C55.8277 98.2247 58.1241 99.7579 60.7139 100.523C63.3037 101.288 66.0647 101.249 68.6316 100.41L69.2302 100.204C79.5724 96.5226 88.4711 89.6393 94.6331 80.554C100.795 71.4688 103.899 60.6552 103.494 49.6849C103.297 44.5574 102.344 39.4871 100.666 34.6377C103.886 43.9261 98.8706 52.3992 90.3459 57.4253H90.3562Z" fill="url(#paint6_linear_165_6159)"></path><g clip-path="url(#clip0_165_6159)"><path d="M53.3758 65.1237C57.1119 65.1237 60.1425 62.0944 60.1425 58.3571C60.1425 54.6198 57.1131 51.5904 53.3758 51.5904C49.6385 51.5904 46.6092 48.5611 46.6092 44.8238C46.6092 41.0865 49.6397 38.0596 53.3758 38.0596C45.9025 38.0596 39.8438 44.1183 39.8438 51.5916C39.8438 59.065 45.9025 65.1237 53.3758 65.1237Z" fill="url(#paint7_linear_165_6159)"></path><path d="M53.376 38.0596C49.6399 38.0596 46.6094 41.0889 46.6094 44.825C46.6094 48.5611 49.6387 51.5916 53.376 51.5916C57.1133 51.5916 60.1426 54.621 60.1426 58.3583C60.1426 62.0956 57.1133 65.1249 53.376 65.1249C60.8494 65.1249 66.9081 59.0662 66.9081 51.5928C66.9081 44.1195 60.8494 38.0596 53.376 38.0596Z" fill="url(#paint8_linear_165_6159)"></path></g><ellipse cx="51.8838" cy="51.2464" rx="38.2686" ry="37.9358" fill="white"></ellipse><rect x="5" y="5.03027" width="93" height="93" rx="46.5" fill="#0057E7"></rect><path d="M77.6276 39.6087L60.0694 33.8766C59.7677 33.756 59.466 33.756 59.104 33.8766L41.5458 39.6087C40.9424 39.7897 40.52 40.3931 40.52 41.0568V64.1058C40.52 64.7695 40.9424 65.3125 41.5458 65.5539L59.104 71.2859C59.285 71.3463 59.4057 71.3463 59.5867 71.3463C59.7677 71.3463 59.8884 71.3463 60.0694 71.2859L77.6276 65.4935C78.231 65.3125 78.6534 64.7091 78.6534 64.0454V41.0568C78.6534 40.3931 78.231 39.8501 77.6276 39.6087ZM58.0783 67.7864L43.5369 63.0197V43.1083L49.3293 44.9788V56.2619C49.3293 57.1066 49.993 57.7703 50.8377 57.7703C51.6825 57.7703 52.3462 57.1066 52.3462 56.2619V46.0045L58.1386 47.875V67.7864H58.0783ZM59.5867 45.2201L55.4837 43.8927L58.3799 42.8669C59.1643 42.5653 59.5867 41.7205 59.285 40.9361C58.9833 40.1517 58.1386 39.7897 57.3542 40.0311L50.8981 42.3842L46.8555 41.0568L59.5867 36.8935L72.3179 41.0568L59.5867 45.2201ZM75.6365 63.0197L69.8441 64.8902V58.3737C69.8441 57.529 69.1804 56.8653 68.3356 56.8653C67.4909 56.8653 66.8875 57.529 66.8875 58.3737V65.9159L61.0951 67.7864V47.875L75.6365 43.1083V63.0197Z" fill="white"></path><path d="M33.5212 42.6855H22.8414C21.9967 42.6855 21.333 43.3493 21.333 44.194C21.333 45.0387 21.9967 45.7024 22.8414 45.7024H33.5212C34.3659 45.7024 35.0296 45.0387 35.0296 44.194C34.9693 43.3493 34.3056 42.6855 33.5212 42.6855Z" fill="white"></path><path d="M33.5212 51.0742H22.8414C21.9967 51.0742 21.333 51.7379 21.333 52.5827C21.333 53.4274 21.9967 54.0911 22.8414 54.0911H33.5212C34.3659 54.0911 35.0296 53.4274 35.0296 52.5827C35.0296 51.7379 34.3056 51.0742 33.5212 51.0742Z" fill="white"></path><path d="M33.5212 59.46H22.8414C21.9967 59.46 21.333 60.1237 21.333 60.9684C21.333 61.8131 21.9967 62.4768 22.8414 62.4768H33.5212C34.3659 62.4768 35.0296 61.8131 35.0296 60.9684C35.0296 60.1237 34.3056 59.46 33.5212 59.46Z" fill="white"></path><defs><linearGradient id="paint0_linear_165_6159" x1="-7.1349" y1="46.0801" x2="46.3984" y2="93.7728" gradientUnits="userSpaceOnUse"><stop stop-color="#020C6A"></stop><stop offset="0.0001" stop-color="#0463EF"></stop><stop offset="0.81096" stop-color="#06BF66"></stop><stop offset="1" stop-color="#68EDA4"></stop></linearGradient><linearGradient id="paint1_linear_165_6159" x1="-30.0116" y1="124.145" x2="2.68646" y2="-25.3477" gradientUnits="userSpaceOnUse"><stop stop-color="#020C6A"></stop><stop offset="0.49" stop-color="#0463EF"></stop><stop offset="1" stop-color="#5EFCA1"></stop></linearGradient><linearGradient id="paint2_linear_165_6159" x1="3.85491" y1="-26.4115" x2="-16.4628" y2="7.92209" gradientUnits="userSpaceOnUse"><stop offset="0.0104167" stop-color="#020C6A"></stop><stop offset="0.572917" stop-color="#06BF66"></stop><stop offset="1" stop-color="#62EAA0"></stop></linearGradient><linearGradient id="paint3_linear_165_6159" x1="-52.3189" y1="-85.2533" x2="60.7968" y2="17.8098" gradientUnits="userSpaceOnUse"><stop offset="0.177083" stop-color="#020C6A"></stop><stop offset="0.822917" stop-color="#0463EF"></stop><stop offset="1" stop-color="#2C7BF6"></stop></linearGradient><linearGradient id="paint4_linear_165_6159" x1="-52.3189" y1="-85.2533" x2="60.7968" y2="17.8098" gradientUnits="userSpaceOnUse"><stop offset="0.177083" stop-color="#020C6A"></stop><stop offset="0.822917" stop-color="#0463EF"></stop><stop offset="1" stop-color="#2C7BF6"></stop></linearGradient><linearGradient id="paint5_linear_165_6159" x1="88.4465" y1="22.3545" x2="88.4465" y2="62.2812" gradientUnits="userSpaceOnUse"><stop offset="0.604725" stop-color="#06BF66"></stop><stop offset="1" stop-color="#7BF5AF"></stop></linearGradient><linearGradient id="paint6_linear_165_6159" x1="140.181" y1="0.130465" x2="-5.6324" y2="46.5591" gradientUnits="userSpaceOnUse"><stop offset="0.215949" stop-color="#0347C4"></stop><stop offset="0.49" stop-color="#0057E7"></stop><stop offset="0.762166" stop-color="#3784F9"></stop></linearGradient><linearGradient id="paint7_linear_165_6159" x1="49.9931" y1="38.0596" x2="49.9931" y2="65.1237" gradientUnits="userSpaceOnUse"><stop stop-color="#06BF66"></stop><stop offset="1" stop-color="#7BF5AF"></stop></linearGradient><linearGradient id="paint8_linear_165_6159" x1="46.6094" y1="38.0596" x2="73.0399" y2="47.0024" gradientUnits="userSpaceOnUse"><stop stop-color="#0057E7"></stop><stop offset="1" stop-color="#0057E7" stop-opacity="0.85"></stop></linearGradient><clipPath id="clip0_165_6159"><rect width="27.0641" height="27.0641" fill="white" transform="translate(39.8438 38.0596)"></rect></clipPath></defs></svg>