<svg xmlns="http://www.w3.org/2000/svg" width="65" height="65" viewBox="0 0 65 65" fill="none"><rect x="0.839844" y="0.0947266" width="64" height="64" rx="10" fill="#0057E7"></rect><path d="M40.8511 28.1448V23.8896C40.8511 19.5918 37.4669 16.0947 33.3077 16.0947C29.1485 16.0947 25.7643 19.5918 25.7643 23.8896V28.1464C22.9788 29.2935 21 32.0947 21 35.3768V40.2999C21 44.5977 24.3842 48.0947 28.5434 48.0947H38.072C42.2312 48.0947 45.6154 44.5977 45.6154 40.2999V35.3768C45.6154 32.0947 43.6366 29.2919 40.8511 28.1448ZM28.1464 23.8896C28.1464 20.9489 30.4618 18.5563 33.3077 18.5563C36.1535 18.5563 38.469 20.9489 38.469 23.8896V27.623C38.334 27.6148 38.2085 27.5819 38.072 27.5819H28.5434C28.4068 27.5819 28.2814 27.6164 28.1464 27.623V23.8896ZM43.2333 40.2999C43.2333 43.2406 40.9178 45.6332 38.072 45.6332H28.5434C25.6976 45.6332 23.3821 43.2406 23.3821 40.2999V35.3768C23.3821 32.4361 25.6976 30.0434 28.5434 30.0434H38.072C40.9178 30.0434 43.2333 32.4361 43.2333 35.3768V40.2999ZM34.4988 37.0178V38.6588C34.4988 39.3382 33.9652 39.8896 33.3077 39.8896C32.6502 39.8896 32.1166 39.3382 32.1166 38.6588V37.0178C32.1166 36.3384 32.6502 35.787 33.3077 35.787C33.9652 35.787 34.4988 36.3384 34.4988 37.0178Z" fill="white"></path></svg>