<svg xmlns="http://www.w3.org/2000/svg" width="16" height="21" viewBox="0 0 16 21" fill="none"><mask id="path-1-inside-1_401_31366" fill="white"><path d="M13.8843 0.21875H1.65289C0.741558 0.21875 0 0.960309 0 1.87164V18.5659C0 19.4772 0.741558 20.2188 1.65289 20.2188H13.8843C14.7956 20.2188 15.5372 19.4772 15.5372 18.5659V1.87164C15.5372 0.960132 14.7956 0.21875 13.8843 0.21875ZM10.8264 18.8964H4.71069V16.4171C4.71069 16.1436 4.93321 15.9213 5.20646 15.9213H10.3305C10.604 15.9213 10.8263 16.1438 10.8263 16.4171L10.8264 18.8964ZM14.2147 18.5658C14.2147 18.7482 14.0667 18.8964 13.884 18.8964H11.8179V16.4171C11.8179 15.5968 11.1506 14.9296 10.3304 14.9296H5.20634C4.38609 14.9296 3.7188 15.5969 3.7188 16.4171V18.8964H1.65268C1.47028 18.8964 1.32201 18.7484 1.32201 18.5658V1.87155C1.32201 1.68915 1.47005 1.54087 1.65268 1.54087H13.8841C14.0665 1.54087 14.2148 1.68892 14.2148 1.87155L14.2147 18.5658Z"></path></mask><path d="M13.8843 0.21875H1.65289C0.741558 0.21875 0 0.960309 0 1.87164V18.5659C0 19.4772 0.741558 20.2188 1.65289 20.2188H13.8843C14.7956 20.2188 15.5372 19.4772 15.5372 18.5659V1.87164C15.5372 0.960132 14.7956 0.21875 13.8843 0.21875ZM10.8264 18.8964H4.71069V16.4171C4.71069 16.1436 4.93321 15.9213 5.20646 15.9213H10.3305C10.604 15.9213 10.8263 16.1438 10.8263 16.4171L10.8264 18.8964ZM14.2147 18.5658C14.2147 18.7482 14.0667 18.8964 13.884 18.8964H11.8179V16.4171C11.8179 15.5968 11.1506 14.9296 10.3304 14.9296H5.20634C4.38609 14.9296 3.7188 15.5969 3.7188 16.4171V18.8964H1.65268C1.47028 18.8964 1.32201 18.7484 1.32201 18.5658V1.87155C1.32201 1.68915 1.47005 1.54087 1.65268 1.54087H13.8841C14.0665 1.54087 14.2148 1.68892 14.2148 1.87155L14.2147 18.5658Z" fill="#0057E7"></path><path d="M10.8264 18.8964V20.2298H12.1598L12.1597 18.8964L10.8264 18.8964ZM4.71069 18.8964H3.37735V20.2298H4.71069V18.8964ZM10.8263 16.4171H9.49293V16.4172L10.8263 16.4171ZM14.2147 18.5658L12.8814 18.5658V18.5658H14.2147ZM11.8179 18.8964H10.4846V20.2298H11.8179V18.8964ZM3.7188 18.8964V20.2298H5.05213V18.8964H3.7188ZM14.2148 1.87155L15.5481 1.87155V1.87155H14.2148ZM13.8843 -1.11458H1.65289V1.55208H13.8843V-1.11458ZM1.65289 -1.11458C0.0051783 -1.11458 -1.33333 0.22393 -1.33333 1.87164H1.33333C1.33333 1.69669 1.47794 1.55208 1.65289 1.55208V-1.11458ZM-1.33333 1.87164V18.5659H1.33333V1.87164H-1.33333ZM-1.33333 18.5659C-1.33333 20.2136 0.00517878 21.5521 1.65289 21.5521V18.8854C1.47794 18.8854 1.33333 18.7408 1.33333 18.5659H-1.33333ZM1.65289 21.5521H13.8843V18.8854H1.65289V21.5521ZM13.8843 21.5521C15.532 21.5521 16.8705 20.2136 16.8705 18.5659H14.2039C14.2039 18.7408 14.0593 18.8854 13.8843 18.8854V21.5521ZM16.8705 18.5659V1.87164H14.2039V18.5659H16.8705ZM16.8705 1.87164C16.8705 0.22366 15.5319 -1.11458 13.8843 -1.11458V1.55208C14.0593 1.55208 14.2039 1.6966 14.2039 1.87164H16.8705ZM10.8264 17.5631H4.71069V20.2298H10.8264V17.5631ZM6.04402 18.8964V16.4171H3.37735V18.8964H6.04402ZM6.04402 16.4171C6.04402 16.8804 5.66918 17.2547 5.20646 17.2547V14.588C4.19723 14.588 3.37735 15.4068 3.37735 16.4171H6.04402ZM5.20646 17.2547H10.3305V14.588H5.20646V17.2547ZM10.3305 17.2547C9.86719 17.2547 9.49293 16.8798 9.49293 16.4171H12.1596C12.1596 15.4079 11.3408 14.588 10.3305 14.588V17.2547ZM9.49293 16.4172L9.49306 18.8965L12.1597 18.8964L12.1596 16.417L9.49293 16.4172ZM12.8814 18.5658C12.8814 18.0124 13.3297 17.5631 13.884 17.5631V20.2298C14.8037 20.2298 15.548 19.4839 15.548 18.5658H12.8814ZM13.884 17.5631H11.8179V20.2298H13.884V17.5631ZM13.1512 18.8964V16.4171H10.4846V18.8964H13.1512ZM13.1512 16.4171C13.1512 14.8604 11.8869 13.5962 10.3304 13.5962V16.2629C10.4142 16.2629 10.4846 16.3333 10.4846 16.4171H13.1512ZM10.3304 13.5962H5.20634V16.2629H10.3304V13.5962ZM5.20634 13.5962C3.64968 13.5962 2.38546 14.8606 2.38546 16.4171H5.05213C5.05213 16.3333 5.12251 16.2629 5.20634 16.2629V13.5962ZM2.38546 16.4171V18.8964H5.05213V16.4171H2.38546ZM3.7188 17.5631H1.65268V20.2298H3.7188V17.5631ZM1.65268 17.5631C2.20604 17.5631 2.65534 18.0114 2.65534 18.5658H-0.0113259C-0.0113259 19.4854 0.734524 20.2298 1.65268 20.2298V17.5631ZM2.65534 18.5658V1.87155H-0.0113259V18.5658H2.65534ZM2.65534 1.87155C2.65534 2.42491 2.20705 2.87421 1.65268 2.87421V0.207542C0.733043 0.207542 -0.0113259 0.953397 -0.0113259 1.87155H2.65534ZM1.65268 2.87421H13.8841V0.207542H1.65268V2.87421ZM13.8841 2.87421C13.3307 2.87421 12.8814 2.42591 12.8814 1.87155H15.5481C15.5481 0.951921 14.8022 0.207542 13.8841 0.207542V2.87421ZM12.8814 1.87154L12.8814 18.5658L15.548 18.5658L15.5481 1.87155L12.8814 1.87154Z" fill="#0057E7" mask="url(#path-1-inside-1_401_31366)"></path><path d="M4.46818 4.60417H4.70521V4.75838H4.46818V4.60417Z" fill="#0057E7" stroke="#0057E7" stroke-width="1.33333"></path><path d="M7.65007 4.60417H7.8871V4.75838H7.65007V4.60417Z" fill="#0057E7" stroke="#0057E7" stroke-width="1.33333"></path><path d="M10.8319 4.60417H11.069V4.75838H10.8319V4.60417Z" fill="#0057E7" stroke="#0057E7" stroke-width="1.33333"></path><path d="M4.46818 7.08464H4.70521V7.23885H4.46818V7.08464Z" fill="#0057E7" stroke="#0057E7" stroke-width="1.33333"></path><path d="M7.65007 7.08464H7.8871V7.23885H7.65007V7.08464Z" fill="#0057E7" stroke="#0057E7" stroke-width="1.33333"></path><path d="M10.8319 7.08464H11.069V7.23885H10.8319V7.08464Z" fill="#0057E7" stroke="#0057E7" stroke-width="1.33333"></path><path d="M4.46818 9.56315H4.70521V9.71736H4.46818V9.56315Z" fill="#0057E7" stroke="#0057E7" stroke-width="1.33333"></path><path d="M7.65007 9.56315H7.8871V9.71736H7.65007V9.56315Z" fill="#0057E7" stroke="#0057E7" stroke-width="1.33333"></path><path d="M10.8319 9.56315H11.069V9.71736H10.8319V9.56315Z" fill="#0057E7" stroke="#0057E7" stroke-width="1.33333"></path><path d="M4.46818 12.0417H4.70521V12.1959H4.46818V12.0417Z" fill="#0057E7" stroke="#0057E7" stroke-width="1.33333"></path><path d="M7.65007 12.0417H7.8871V12.1959H7.65007V12.0417Z" fill="#0057E7" stroke="#0057E7" stroke-width="1.33333"></path><path d="M10.8319 12.0417H11.069V12.1959H10.8319V12.0417Z" fill="#0057E7" stroke="#0057E7" stroke-width="1.33333"></path></svg>