<svg xmlns="http://www.w3.org/2000/svg" width="42" height="43" viewBox="0 0 42 43" fill="none"><rect y="0.71875" width="42" height="42" rx="21" fill="#0057E7"></rect><path d="M28.8571 11.7188H13.1429C11.9375 11.7188 11 12.7009 11 13.8616V29.5759C11 30.7812 11.9375 31.7188 13.1429 31.7188H19.2589V24.933H16.4464V21.7188H19.2589V19.308C19.2589 16.5402 20.9107 14.9777 23.4107 14.9777C24.6607 14.9777 25.9107 15.2009 25.9107 15.2009V17.9241H24.5268C23.1429 17.9241 22.6964 18.7723 22.6964 19.6652V21.7188H25.7768L25.2857 24.933H22.6964V31.7188H28.8571C30.0179 31.7188 31 30.7812 31 29.5759V13.8616C31 12.7009 30.0179 11.7188 28.8571 11.7188Z" fill="white"></path></svg>