<svg xmlns="http://www.w3.org/2000/svg" width="42" height="43" viewBox="0 0 42 43" fill="none"><rect y="0.71875" width="42" height="42" rx="21" fill="#0057E7"></rect><path d="M21.0223 16.5625C18.1652 16.5625 15.8884 18.8839 15.8884 21.6964C15.8884 24.5536 18.1652 26.8304 21.0223 26.8304C23.8348 26.8304 26.1562 24.5536 26.1562 21.6964C26.1562 18.8839 23.8348 16.5625 21.0223 16.5625ZM21.0223 25.0446C19.192 25.0446 17.6741 23.5714 17.6741 21.6964C17.6741 19.8661 19.1473 18.3929 21.0223 18.3929C22.8527 18.3929 24.3259 19.8661 24.3259 21.6964C24.3259 23.5714 22.8527 25.0446 21.0223 25.0446ZM27.5402 16.3839C27.5402 15.7143 27.0045 15.1786 26.3348 15.1786C25.6652 15.1786 25.1295 15.7143 25.1295 16.3839C25.1295 17.0536 25.6652 17.5893 26.3348 17.5893C27.0045 17.5893 27.5402 17.0536 27.5402 16.3839ZM30.933 17.5893C30.8438 15.9821 30.4866 14.5536 29.3259 13.3929C28.1652 12.2321 26.7366 11.875 25.1295 11.7857C23.4777 11.6964 18.5223 11.6964 16.8705 11.7857C15.2634 11.875 13.8795 12.2321 12.6741 13.3929C11.5134 14.5536 11.1562 15.9821 11.067 17.5893C10.9777 19.2411 10.9777 24.1964 11.067 25.8482C11.1562 27.4554 11.5134 28.8393 12.6741 30.0446C13.8795 31.2054 15.2634 31.5625 16.8705 31.6518C18.5223 31.7411 23.4777 31.7411 25.1295 31.6518C26.7366 31.5625 28.1652 31.2054 29.3259 30.0446C30.4866 28.8393 30.8438 27.4554 30.933 25.8482C31.0223 24.1964 31.0223 19.2411 30.933 17.5893ZM28.7902 27.5893C28.4777 28.4821 27.7634 29.1518 26.9152 29.5089C25.5759 30.0446 22.4509 29.9107 21.0223 29.9107C19.5491 29.9107 16.4241 30.0446 15.1295 29.5089C14.2366 29.1518 13.567 28.4821 13.2098 27.5893C12.6741 26.2946 12.808 23.1696 12.808 21.6964C12.808 20.2679 12.6741 17.1429 13.2098 15.8036C13.567 14.9554 14.2366 14.2857 15.1295 13.9286C16.4241 13.3929 19.5491 13.5268 21.0223 13.5268C22.4509 13.5268 25.5759 13.3929 26.9152 13.9286C27.7634 14.2411 28.433 14.9554 28.7902 15.8036C29.3259 17.1429 29.192 20.2679 29.192 21.6964C29.192 23.1696 29.3259 26.2946 28.7902 27.5893Z" fill="white"></path></svg>