<svg xmlns="http://www.w3.org/2000/svg" width="42" height="43" viewBox="0 0 42 43" fill="none"><rect y="0.71875" width="42" height="42" rx="21" fill="#0057E7"></rect><path d="M15.4743 31.7188V18.3407H11.3132V31.7188H15.4743ZM13.3714 16.551C14.7136 16.551 15.7875 15.4324 15.7875 14.0901C15.7875 12.7926 14.7136 11.7188 13.3714 11.7188C12.0738 11.7188 11 12.7926 11 14.0901C11 15.4324 12.0738 16.551 13.3714 16.551ZM31.0447 31.7188V24.3809C31.0447 20.8015 30.2394 18.0275 26.0336 18.0275C24.0201 18.0275 22.6779 19.146 22.0962 20.1751H22.0515V18.3407H18.0694V31.7188H22.2304V25.0968C22.2304 23.3519 22.5436 21.6964 24.6913 21.6964C26.8389 21.6964 26.8837 23.6651 26.8837 25.2311V31.7188H31.0447Z" fill="white"></path></svg>