<svg xmlns="http://www.w3.org/2000/svg" width="20" height="21" viewBox="0 0 20 21" fill="none"><rect width="20" height="21" fill="#979797"></rect><g id="Home Page " clip-path="url(#clip0_0_1)"><rect width="1440" height="9331" transform="translate(-151 -9171)" fill="white"></rect><g id="Frame 92843"><g id="footer"><g id="Frame 92674"><g id="Frame 35189"><g id="Frame 35188"><path id="phone-Regular" d="M18.9422 15.4039L18.9418 15.4019C18.9221 15.2863 18.8982 15.1851 18.873 15.0939C18.7527 14.6657 18.372 14.3222 17.8874 14.2423L17.8867 14.2422L13.5547 13.5213L13.5541 13.5212C13.0945 13.4441 12.6394 13.6223 12.3618 13.9777L12.3615 13.9782C12.3124 14.0409 12.2677 14.1012 12.228 14.16L12.2267 14.1619C12.0991 14.3488 11.7288 14.6822 11.2487 14.4722C8.88595 13.4447 7.01954 11.5781 5.99317 9.21516C5.78434 8.73656 6.10996 8.37078 6.30059 8.24183L6.30138 8.24129L18.9422 15.4039ZM18.9422 15.4039C19.1378 16.5258 18.8156 17.678 18.0504 18.5641C17.2758 19.4608 16.1687 19.967 14.9978 19.967C14.964 19.967 14.9289 19.9662 14.8879 19.9652C7.03165 19.7532 0.713418 13.4339 0.501581 5.57755L0.501571 5.57719M18.9422 15.4039L0.501571 5.57719M0.501571 5.57719C0.467759 4.35639 0.981328 3.1986 1.91042 2.40037L0.501571 5.57719ZM6.9939 6.88394C7.06413 7.32895 6.89005 7.78092 6.54227 8.06229L1.91059 2.40023C2.79378 1.64227 3.93743 1.32818 5.05263 1.52716C5.22491 1.55809 5.36983 1.59629 5.49166 1.63662L5.49207 1.63675C5.92816 1.78071 6.24843 2.15767 6.32289 2.62901L6.99389 6.88388L6.9939 6.88394ZM17.67 18.238L17.6703 18.2377C18.3314 17.4717 18.621 16.4707 18.4504 15.4894L18.4501 15.4878C18.4343 15.3987 18.4157 15.3108 18.3909 15.2256L18.3907 15.2247C18.298 14.9075 18.0048 14.7695 17.8084 14.7354L17.8049 14.7348L13.4729 14.0138L13.4729 14.0137L13.4637 14.0124C13.2189 13.9763 12.9351 14.0555 12.754 14.2869L12.7521 14.2893C12.7116 14.3418 12.6756 14.3919 12.6427 14.439L12.6403 14.4424C12.2649 14.9904 11.6119 15.1749 11.049 14.9304C8.57017 13.8529 6.61189 11.8945 5.53438 9.41472C5.2887 8.84831 5.47514 8.19905 6.0169 7.83013C6.09055 7.78057 6.16084 7.72816 6.22869 7.67321C6.44232 7.50117 6.54308 7.22715 6.50053 6.9613C6.50049 6.96099 6.50044 6.96069 6.50039 6.96039L5.82964 2.70711L5.82963 2.70702C5.78963 2.45368 5.61863 2.20537 5.3345 2.11156C5.22186 2.0737 5.09935 2.0433 4.96486 2.01895L4.96486 2.01894L4.96183 2.01841C4.76891 1.98471 4.57408 1.96701 4.37975 1.96701C3.59645 1.96701 2.85125 2.25169 2.23613 2.7796L2.23605 2.77966C1.42192 3.47866 0.971994 4.49476 0.999919 5.56404L0.999931 5.5645C1.20511 13.155 7.31062 19.2616 14.9002 19.4668L14.9002 19.4669L14.9082 19.467C15.951 19.4785 16.9681 19.0497 17.67 18.238Z" fill="#0057E7" stroke="#0057E7"></path></g></g></g></g></g></g><defs></defs></svg>