<svg xmlns="http://www.w3.org/2000/svg" width="42" height="43" viewBox="0 0 42 43" fill="none"><rect y="0.71875" width="42" height="42" rx="21" fill="#0057E7"></rect><path d="M29.6411 16.564V20.0102C29.0392 19.952 28.2603 19.8149 27.3953 19.4971C26.2673 19.0827 25.4272 18.5156 24.8782 18.0762V25.0434L24.8647 25.0216C24.8741 25.1598 24.8782 25.3 24.8782 25.4423C24.8782 28.903 22.071 31.7188 18.6185 31.7188C15.166 31.7188 12.3589 28.902 12.3589 25.4423C12.3589 21.9826 15.166 19.1647 18.6185 19.1647C18.9562 19.1647 19.2877 19.1917 19.6119 19.2437V22.6411C19.3001 22.5289 18.9666 22.4686 18.6185 22.4686C16.984 22.4686 15.6529 23.8023 15.6529 25.4423C15.6529 27.0823 16.984 28.4159 18.6185 28.4159C20.2531 28.4159 21.5842 27.0812 21.5842 25.4423C21.5842 25.381 21.5832 25.3197 21.579 25.2584V11.7188H25.0149C25.0274 12.0106 25.0398 12.3045 25.0512 12.5964C25.074 13.1708 25.278 13.7223 25.6333 14.1741C26.0508 14.7048 26.6661 15.3218 27.5321 15.8141C28.3421 16.2742 29.1024 16.4716 29.6411 16.565V16.564Z" fill="white"></path></svg>