<svg xmlns="http://www.w3.org/2000/svg" width="42" height="43" viewBox="0 0 42 43" fill="none"><rect y="0.71875" width="42" height="42" rx="21" fill="#0057E7"></rect><path d="M30.8289 18.4755C30.7068 17.286 30.4423 15.9723 29.4698 15.2811C28.7154 14.7453 27.7251 14.7257 26.8006 14.7266C24.8457 14.7284 22.8908 14.7302 20.9359 14.7319C19.0558 14.7337 17.1757 14.7355 15.2956 14.7373C14.5101 14.7373 13.7468 14.6766 13.0174 15.0168C12.3904 15.3097 11.9006 15.8661 11.6066 16.4849C11.197 17.3467 11.1106 18.3218 11.0616 19.2747C10.9707 21.0089 10.9805 22.7485 11.0901 24.481C11.1694 25.7464 11.3715 27.1439 12.3467 27.9503C13.2115 28.6647 14.4317 28.6995 15.5521 28.7004C19.111 28.7031 22.6699 28.7058 26.2288 28.7094C26.6848 28.7094 27.1613 28.7013 27.6262 28.6504C28.5418 28.5513 29.4137 28.2888 30.0015 27.6092C30.5946 26.9242 30.7469 25.9696 30.8378 25.0668C31.0569 22.8771 31.0542 20.6642 30.8289 18.4755ZM18.8776 24.789V18.6469L24.1831 21.718L18.8776 24.789Z" fill="white"></path></svg>