<svg xmlns="http://www.w3.org/2000/svg" width="42" height="43" viewBox="0 0 42 43" fill="none"><rect y="0.71875" width="42" height="42" rx="21" fill="#0057E7"></rect><path fill-rule="evenodd" clip-rule="evenodd" d="M15.7005 17.332H8.6942V18.8351H13.557L8.76312 24.7764C8.57398 25.0328 8.48182 25.3479 8.50298 25.6658V26.0482H15.1135C15.2722 26.0465 15.4239 25.9827 15.5361 25.8705C15.6483 25.7582 15.7121 25.6066 15.7138 25.4479V24.643H10.5998L15.1068 18.9886L15.3536 18.6884L15.3803 18.6484C15.6056 18.323 15.7159 17.9317 15.6938 17.5366L15.7005 17.332ZM24.6214 26.0482H25.6287V17.332H24.1256V25.5413C24.125 25.674 24.1767 25.8016 24.2695 25.8965C24.3623 25.9914 24.4887 26.0459 24.6214 26.0482ZM17.5874 19.8461C18.1491 19.4708 18.8094 19.2705 19.4849 19.2705C20.2163 19.2705 20.9235 19.5051 21.506 19.9327V19.4634H22.9134V26.0472H22.1085C21.9527 26.0468 21.803 25.9862 21.6907 25.878C21.5785 25.7699 21.5123 25.6226 21.506 25.4669V25.439C21.2861 25.6004 21.0465 25.7357 20.7919 25.8412C20.1678 26.0997 19.4811 26.1673 18.8186 26.0355C18.1561 25.9037 17.5475 25.5785 17.0699 25.1008C16.5923 24.6232 16.267 24.0146 16.1352 23.3521C16.0034 22.6896 16.071 22.0029 16.3295 21.3788C16.588 20.7548 17.0258 20.2214 17.5874 19.8461ZM18.3731 24.3564C18.7022 24.5763 19.0891 24.6937 19.4849 24.6937C20.0156 24.6937 20.5246 24.4828 20.8999 24.1075C21.2752 23.7322 21.4861 23.2232 21.4861 22.6925C21.4861 22.2967 21.3687 21.9098 21.1488 21.5807C20.9289 21.2516 20.6164 20.9951 20.2507 20.8437C19.885 20.6922 19.4827 20.6526 19.0945 20.7298C18.7063 20.807 18.3497 20.9976 18.0699 21.2775C17.79 21.5573 17.5994 21.9139 17.5222 22.3021C17.445 22.6903 17.4846 23.0927 17.6361 23.4583C17.7875 23.824 18.044 24.1365 18.3731 24.3564ZM30.0581 19.2192C29.3774 19.2192 28.7119 19.4211 28.1459 19.7993C27.5798 20.1775 27.1387 20.7151 26.8781 21.344C26.6176 21.973 26.5495 22.6651 26.6823 23.3327C26.8151 24.0004 27.1429 24.6137 27.6243 25.0951C28.1056 25.5765 28.719 25.9043 29.3866 26.0371C30.0543 26.1699 30.7464 26.1018 31.3753 25.8412C32.0043 25.5807 32.5418 25.1395 32.9201 24.5735C33.2983 24.0075 33.5001 23.342 33.5001 22.6612C33.499 21.7487 33.136 20.8739 32.4907 20.2287C31.8455 19.5834 30.9706 19.2204 30.0581 19.2192ZM30.0581 24.698C29.6584 24.698 29.2676 24.5794 28.9352 24.3573C28.6029 24.1353 28.3438 23.8196 28.1908 23.4503C28.0378 23.0809 27.9978 22.6746 28.0758 22.2825C28.1538 21.8904 28.3463 21.5303 28.6289 21.2476C28.9116 20.965 29.2717 20.7724 29.6638 20.6945C30.0559 20.6165 30.4623 20.6565 30.8316 20.8095C31.2009 20.9625 31.5166 21.2215 31.7387 21.5539C31.9608 21.8863 32.0793 22.2771 32.0793 22.6768C32.0799 22.9424 32.028 23.2055 31.9267 23.451C31.8253 23.6964 31.6764 23.9195 31.4886 24.1073C31.3008 24.2951 31.0778 24.444 30.8323 24.5453C30.5868 24.6467 30.3237 24.6986 30.0581 24.698Z" fill="white"></path></svg>